<svg xmlns="http://www.w3.org/2000/svg" xmlns:xlink="http://www.w3.org/1999/xlink" width="581" zoomAndPan="magnify" viewBox="0 0 435.75 487.499991" height="650" preserveAspectRatio="xMidYMid meet" version="1.0"><defs><g/><clipPath id="cd1e844de5"><path d="M 13.027344 163 L 377 163 L 377 237 L 13.027344 237 Z M 13.027344 163 " clip-rule="nonzero"/></clipPath><clipPath id="f05cd83601"><path d="M 13.027344 250 L 377 250 L 377 324 L 13.027344 324 Z M 13.027344 250 " clip-rule="nonzero"/></clipPath><clipPath id="accb3b66e7"><path d="M 13.027344 340 L 377 340 L 377 413.449219 L 13.027344 413.449219 Z M 13.027344 340 " clip-rule="nonzero"/></clipPath><clipPath id="1f6a2c7c9a"><path d="M 301 108 L 422.109375 108 L 422.109375 379 L 301 379 Z M 301 108 " clip-rule="nonzero"/></clipPath><clipPath id="f026aa1f1c"><path d="M 100.644531 107.804688 L 289.453125 107.804688 L 289.453125 138.332031 L 100.644531 138.332031 Z M 100.644531 107.804688 " clip-rule="nonzero"/></clipPath></defs><path fill="#ffffff" d="M 370.039062 234.480469 L 19.210938 234.480469 C 16.640625 234.480469 14.558594 232.398438 14.558594 229.828125 L 14.558594 169.277344 C 14.558594 166.707031 16.640625 164.625 19.210938 164.625 L 370.039062 164.625 C 372.609375 164.625 374.6875 166.707031 374.6875 169.277344 L 374.6875 229.800781 C 374.6875 232.398438 372.609375 234.480469 370.039062 234.480469 Z M 370.039062 234.480469 " fill-opacity="1" fill-rule="nonzero"/><g clip-path="url(#cd1e844de5)"><path fill="#000000" d="M 370.039062 236.011719 L 19.210938 236.011719 C 15.800781 236.011719 13.027344 233.238281 13.027344 229.828125 L 13.027344 169.277344 C 13.027344 165.867188 15.800781 163.09375 19.210938 163.09375 L 370.039062 163.09375 C 373.445312 163.09375 376.21875 165.867188 376.21875 169.277344 L 376.21875 229.800781 C 376.25 233.238281 373.476562 236.011719 370.039062 236.011719 Z M 19.210938 166.1875 C 17.507812 166.1875 16.121094 167.574219 16.121094 169.277344 L 16.121094 229.800781 C 16.121094 231.503906 17.507812 232.890625 19.210938 232.890625 L 370.039062 232.890625 C 371.742188 232.890625 373.128906 231.503906 373.128906 229.800781 L 373.128906 169.277344 C 373.128906 167.574219 371.742188 166.1875 370.039062 166.1875 Z M 19.210938 166.1875 " fill-opacity="1" fill-rule="nonzero"/></g><path fill="#ffffff" d="M 370.039062 322.300781 L 19.210938 322.300781 C 16.640625 322.300781 14.558594 320.222656 14.558594 317.652344 L 14.558594 257.128906 C 14.558594 254.558594 16.640625 252.476562 19.210938 252.476562 L 370.039062 252.476562 C 372.609375 252.476562 374.6875 254.558594 374.6875 257.128906 L 374.6875 317.652344 C 374.6875 320.222656 372.609375 322.300781 370.039062 322.300781 Z M 370.039062 322.300781 " fill-opacity="1" fill-rule="nonzero"/><g clip-path="url(#f05cd83601)"><path fill="#000000" d="M 370.039062 323.832031 L 19.210938 323.832031 C 15.800781 323.832031 13.027344 321.058594 13.027344 317.652344 L 13.027344 257.128906 C 13.027344 253.71875 15.800781 250.945312 19.210938 250.945312 L 370.039062 250.945312 C 373.445312 250.945312 376.21875 253.71875 376.21875 257.128906 L 376.21875 317.652344 C 376.25 321.058594 373.476562 323.832031 370.039062 323.832031 Z M 19.210938 254.007812 C 17.507812 254.007812 16.121094 255.394531 16.121094 257.097656 L 16.121094 317.621094 C 16.121094 319.328125 17.507812 320.714844 19.210938 320.714844 L 370.039062 320.714844 C 371.742188 320.714844 373.128906 319.328125 373.128906 317.621094 L 373.128906 257.128906 C 373.128906 255.425781 371.742188 254.039062 370.039062 254.039062 L 19.210938 254.039062 Z M 19.210938 254.007812 " fill-opacity="1" fill-rule="nonzero"/></g><path fill="#6d6d6d" d="M 34.753906 204.234375 L 59.886719 204.234375 L 59.886719 208.941406 L 34.753906 208.941406 Z M 34.753906 204.234375 " fill-opacity="1" fill-rule="nonzero"/><path fill="#6d6d6d" d="M 74.910156 204.234375 L 151.433594 204.234375 L 151.433594 208.941406 L 74.910156 208.941406 Z M 74.910156 204.234375 " fill-opacity="1" fill-rule="nonzero"/><path fill="#cccccc" d="M 164.289062 204.234375 L 288.746094 204.234375 L 288.746094 208.941406 L 164.289062 208.941406 Z M 164.289062 204.234375 " fill-opacity="1" fill-rule="nonzero"/><path fill="#6d6d6d" d="M 301.167969 204.234375 L 359.492188 204.234375 L 359.492188 208.941406 L 301.167969 208.941406 Z M 301.167969 204.234375 " fill-opacity="1" fill-rule="nonzero"/><path fill="#cccccc" d="M 34.753906 215.875 L 203.609375 215.875 L 203.609375 220.582031 L 34.753906 220.582031 Z M 34.753906 215.875 " fill-opacity="1" fill-rule="nonzero"/><path fill="#cccccc" d="M 214.125 215.875 L 278.980469 215.875 L 278.980469 220.582031 L 214.125 220.582031 Z M 214.125 215.875 " fill-opacity="1" fill-rule="nonzero"/><path fill="#cccccc" d="M 284.875 215.875 L 339.414062 215.875 L 339.414062 220.582031 L 284.875 220.582031 Z M 284.875 215.875 " fill-opacity="1" fill-rule="nonzero"/><path fill="#ff6600" d="M 34.753906 179.589844 L 338.117188 179.589844 L 338.117188 190.105469 L 34.753906 190.105469 Z M 34.753906 179.589844 " fill-opacity="1" fill-rule="nonzero"/><path fill="#cccccc" d="M 34.78125 291.074219 L 210.628906 291.074219 L 210.628906 295.78125 L 34.78125 295.78125 Z M 34.78125 291.074219 " fill-opacity="1" fill-rule="nonzero"/><path fill="#cccccc" d="M 217.9375 291.074219 L 309.371094 291.074219 L 309.371094 295.78125 L 217.9375 295.78125 Z M 217.9375 291.074219 " fill-opacity="1" fill-rule="nonzero"/><path fill="#6d6d6d" d="M 34.78125 302.714844 L 64.304688 302.714844 L 64.304688 307.425781 L 34.78125 307.425781 Z M 34.78125 302.714844 " fill-opacity="1" fill-rule="nonzero"/><path fill="#6d6d6d" d="M 79.644531 302.714844 L 191.820312 302.714844 L 191.820312 307.425781 L 79.644531 307.425781 Z M 79.644531 302.714844 " fill-opacity="1" fill-rule="nonzero"/><path fill="#cccccc" d="M 198.003906 302.714844 L 333.464844 302.714844 L 333.464844 307.425781 L 198.003906 307.425781 Z M 198.003906 302.714844 " fill-opacity="1" fill-rule="nonzero"/><path fill="#ff6600" d="M 34.78125 266.429688 L 282.648438 266.429688 L 282.648438 276.945312 L 34.78125 276.945312 Z M 34.78125 266.429688 " fill-opacity="1" fill-rule="nonzero"/><path fill="#ffffff" d="M 370.039062 411.65625 L 19.210938 411.65625 C 16.640625 411.65625 14.558594 409.574219 14.558594 407.003906 L 14.558594 346.480469 C 14.558594 343.910156 16.640625 341.832031 19.210938 341.832031 L 370.039062 341.832031 C 372.609375 341.832031 374.6875 343.910156 374.6875 346.480469 L 374.6875 407.003906 C 374.6875 409.574219 372.609375 411.65625 370.039062 411.65625 Z M 370.039062 411.65625 " fill-opacity="1" fill-rule="nonzero"/><g clip-path="url(#accb3b66e7)"><path fill="#ff6600" d="M 370.039062 413.1875 L 19.210938 413.1875 C 15.800781 413.1875 13.027344 410.414062 13.027344 407.003906 L 13.027344 346.480469 C 13.027344 343.074219 15.800781 340.300781 19.210938 340.300781 L 370.039062 340.300781 C 373.445312 340.300781 376.21875 343.074219 376.21875 346.480469 L 376.21875 407.003906 C 376.25 410.414062 373.476562 413.1875 370.039062 413.1875 Z M 19.210938 343.363281 C 17.507812 343.363281 16.121094 344.75 16.121094 346.453125 L 16.121094 406.976562 C 16.121094 408.679688 17.507812 410.066406 19.210938 410.066406 L 370.039062 410.066406 C 371.742188 410.066406 373.128906 408.679688 373.128906 406.976562 L 373.128906 346.480469 C 373.128906 344.777344 371.742188 343.390625 370.039062 343.390625 L 19.210938 343.390625 Z M 19.210938 343.363281 " fill-opacity="1" fill-rule="nonzero"/></g><path fill="#cccccc" d="M 34.78125 380.425781 L 180.441406 380.425781 L 180.441406 385.136719 L 34.78125 385.136719 Z M 34.78125 380.425781 " fill-opacity="1" fill-rule="nonzero"/><path fill="#cccccc" d="M 187.75 380.425781 L 309.371094 380.425781 L 309.371094 385.136719 L 187.75 385.136719 Z M 187.75 380.425781 " fill-opacity="1" fill-rule="nonzero"/><path fill="#6d6d6d" d="M 34.78125 392.070312 L 88.140625 392.070312 L 88.140625 396.777344 L 34.78125 396.777344 Z M 34.78125 392.070312 " fill-opacity="1" fill-rule="nonzero"/><path fill="#6d6d6d" d="M 103.480469 392.070312 L 217.359375 392.070312 L 217.359375 396.777344 L 103.480469 396.777344 Z M 103.480469 392.070312 " fill-opacity="1" fill-rule="nonzero"/><path fill="#cccccc" d="M 223.542969 392.070312 L 344.789062 392.070312 L 344.789062 396.777344 L 223.542969 396.777344 Z M 223.542969 392.070312 " fill-opacity="1" fill-rule="nonzero"/><path fill="#ff6600" d="M 34.78125 355.785156 L 312.839844 355.785156 L 312.839844 366.300781 L 34.78125 366.300781 Z M 34.78125 355.785156 " fill-opacity="1" fill-rule="nonzero"/><g clip-path="url(#1f6a2c7c9a)"><path fill="#ff6600" d="M 406.757812 118.722656 L 323.46875 118.722656 L 323.46875 109.042969 C 323.46875 108.320312 322.6875 107.886719 322.082031 108.234375 L 302.378906 119.617188 C 301.773438 119.964844 301.773438 120.859375 302.378906 121.234375 L 322.082031 132.617188 C 322.6875 132.964844 323.46875 132.53125 323.46875 131.808594 L 323.46875 121.8125 L 406.757812 121.8125 C 413.71875 121.8125 419.410156 127.472656 419.410156 134.464844 L 419.410156 362.488281 C 419.410156 369.449219 413.746094 375.140625 406.757812 375.140625 L 374.832031 375.140625 L 374.832031 378.230469 L 406.757812 378.230469 C 415.421875 378.230469 422.472656 371.183594 422.472656 362.515625 L 422.472656 134.4375 C 422.472656 125.769531 415.421875 118.722656 406.757812 118.722656 Z M 406.757812 118.722656 " fill-opacity="1" fill-rule="nonzero"/></g><g clip-path="url(#f026aa1f1c)"><path fill="#000000" d="M 274.222656 136.292969 L 115.910156 136.292969 C 108.617188 136.292969 102.6875 130.359375 102.6875 123.070312 C 102.6875 115.777344 108.617188 109.84375 115.910156 109.84375 L 274.222656 109.84375 C 281.515625 109.84375 287.445312 115.777344 287.445312 123.070312 C 287.445312 130.359375 281.515625 136.292969 274.222656 136.292969 Z M 274.222656 107.804688 L 115.910156 107.804688 C 107.492188 107.804688 100.644531 114.652344 100.644531 123.070312 C 100.644531 131.488281 107.492188 138.332031 115.910156 138.332031 L 274.222656 138.332031 C 282.636719 138.332031 289.488281 131.488281 289.488281 123.070312 C 289.488281 114.652344 282.636719 107.804688 274.222656 107.804688 " fill-opacity="1" fill-rule="nonzero"/></g><path fill="#000000" d="M 113.066406 122.863281 C 113.066406 120.855469 114.699219 119.21875 116.710938 119.21875 C 118.71875 119.21875 120.355469 120.855469 120.355469 122.863281 C 120.355469 124.875 118.71875 126.507812 116.710938 126.507812 C 114.699219 126.507812 113.066406 124.875 113.066406 122.863281 Z M 121.382812 126.09375 C 122.023438 125.175781 122.394531 124.0625 122.394531 122.863281 C 122.394531 119.730469 119.84375 117.179688 116.710938 117.179688 C 113.574219 117.179688 111.023438 119.730469 111.023438 122.863281 C 111.023438 126 113.574219 128.546875 116.710938 128.546875 C 117.910156 128.546875 119.023438 128.175781 119.941406 127.539062 L 123.425781 131.023438 C 123.625 131.222656 123.886719 131.320312 124.148438 131.320312 C 124.410156 131.320312 124.667969 131.222656 124.867188 131.023438 C 125.265625 130.625 125.265625 129.976562 124.867188 129.578125 L 121.382812 126.09375 " fill-opacity="1" fill-rule="nonzero"/><path fill="#000000" d="M 277.570312 120.875 C 277.28125 120.875 277.050781 121.109375 277.050781 121.394531 L 277.050781 123.148438 C 277.050781 125.148438 275.421875 126.777344 273.421875 126.777344 C 271.421875 126.777344 269.792969 125.148438 269.792969 123.148438 L 269.792969 121.394531 C 269.792969 121.109375 269.5625 120.875 269.273438 120.875 C 268.988281 120.875 268.757812 121.109375 268.757812 121.394531 L 268.757812 123.148438 C 268.757812 125.546875 270.574219 127.527344 272.90625 127.785156 L 272.90625 129.996094 L 271.675781 129.996094 C 271.386719 129.996094 271.15625 130.230469 271.15625 130.515625 C 271.15625 130.800781 271.386719 131.035156 271.675781 131.035156 L 275.171875 131.035156 C 275.457031 131.035156 275.6875 130.800781 275.6875 130.515625 C 275.6875 130.230469 275.457031 129.996094 275.171875 129.996094 L 273.941406 129.996094 L 273.941406 127.785156 C 276.269531 127.527344 278.085938 125.546875 278.085938 123.148438 L 278.085938 121.394531 C 278.085938 121.109375 277.855469 120.875 277.570312 120.875 " fill-opacity="1" fill-rule="nonzero"/><path fill="#000000" d="M 273.421875 125.585938 C 274.753906 125.585938 275.832031 124.503906 275.832031 123.175781 L 275.832031 119.613281 C 275.832031 118.285156 274.753906 117.207031 273.421875 117.207031 C 272.089844 117.207031 271.011719 118.285156 271.011719 119.613281 L 271.011719 123.175781 C 271.011719 124.503906 272.089844 125.585938 273.421875 125.585938 " fill-opacity="1" fill-rule="nonzero"/><g fill="#ff6600" fill-opacity="1"><g transform="translate(149.30754, 127.203161)"><g><path d="M 2.1875 -7.34375 C 2.394531 -7.25 2.554688 -7.109375 2.671875 -6.921875 C 2.796875 -6.742188 2.859375 -6.523438 2.859375 -6.265625 C 2.859375 -5.910156 2.742188 -5.617188 2.515625 -5.390625 C 2.285156 -5.171875 2 -5.0625 1.65625 -5.0625 C 1.300781 -5.0625 1.003906 -5.175781 0.765625 -5.40625 C 0.535156 -5.632812 0.421875 -5.921875 0.421875 -6.265625 C 0.421875 -6.441406 0.441406 -6.613281 0.484375 -6.78125 C 0.523438 -6.945312 0.617188 -7.195312 0.765625 -7.53125 L 1.5 -9.34375 L 2.75 -9.34375 Z M 5.15625 -7.34375 C 5.363281 -7.25 5.523438 -7.109375 5.640625 -6.921875 C 5.765625 -6.742188 5.828125 -6.523438 5.828125 -6.265625 C 5.828125 -5.910156 5.710938 -5.617188 5.484375 -5.390625 C 5.253906 -5.171875 4.96875 -5.0625 4.625 -5.0625 C 4.269531 -5.0625 3.972656 -5.175781 3.734375 -5.40625 C 3.503906 -5.632812 3.390625 -5.921875 3.390625 -6.265625 C 3.390625 -6.441406 3.410156 -6.613281 3.453125 -6.78125 C 3.492188 -6.945312 3.585938 -7.195312 3.734375 -7.53125 L 4.46875 -9.34375 L 5.71875 -9.34375 Z M 5.15625 -7.34375 "/></g></g></g><g fill="#ff6600" fill-opacity="1"><g transform="translate(155.575877, 127.203161)"><g><path d="M 0 0 L 6.296875 0 L 6.296875 1.140625 L 0 1.140625 Z M 0 0 "/></g></g></g><g fill="#ff6600" fill-opacity="1"><g transform="translate(161.869392, 127.203161)"><g><path d="M 0 0 L 6.296875 0 L 6.296875 1.140625 L 0 1.140625 Z M 0 0 "/></g></g></g><g fill="#ff6600" fill-opacity="1"><g transform="translate(168.162907, 127.203161)"><g><path d="M 0 0 L 6.296875 0 L 6.296875 1.140625 L 0 1.140625 Z M 0 0 "/></g></g></g><g fill="#ff6600" fill-opacity="1"><g transform="translate(174.456423, 127.203161)"><g/></g></g><g fill="#ff6600" fill-opacity="1"><g transform="translate(178.018554, 127.203161)"><g><path d="M 5.03125 -6.875 C 5.863281 -6.875 6.535156 -6.617188 7.046875 -6.109375 C 7.566406 -5.609375 7.828125 -4.863281 7.828125 -3.875 L 7.828125 0 L 5.875 0 L 5.875 -3.578125 C 5.875 -4.109375 5.753906 -4.503906 5.515625 -4.765625 C 5.273438 -5.035156 4.9375 -5.171875 4.5 -5.171875 C 4 -5.171875 3.601562 -5.015625 3.3125 -4.703125 C 3.019531 -4.398438 2.875 -3.945312 2.875 -3.34375 L 2.875 0 L 0.90625 0 L 0.90625 -6.78125 L 2.78125 -6.78125 L 2.78125 -5.984375 C 3.039062 -6.265625 3.363281 -6.484375 3.75 -6.640625 C 4.132812 -6.796875 4.5625 -6.875 5.03125 -6.875 Z M 5.03125 -6.875 "/></g></g></g><g fill="#ff6600" fill-opacity="1"><g transform="translate(186.71619, 127.203161)"><g><path d="M 7.546875 -3.359375 C 7.546875 -3.335938 7.53125 -3.160156 7.5 -2.828125 L 2.375 -2.828125 C 2.46875 -2.410156 2.6875 -2.078125 3.03125 -1.828125 C 3.375 -1.585938 3.800781 -1.46875 4.3125 -1.46875 C 4.664062 -1.46875 4.976562 -1.519531 5.25 -1.625 C 5.53125 -1.726562 5.785156 -1.894531 6.015625 -2.125 L 7.0625 -1 C 6.425781 -0.269531 5.492188 0.09375 4.265625 0.09375 C 3.503906 0.09375 2.828125 -0.0507812 2.234375 -0.34375 C 1.648438 -0.644531 1.195312 -1.054688 0.875 -1.578125 C 0.5625 -2.109375 0.40625 -2.710938 0.40625 -3.390625 C 0.40625 -4.046875 0.5625 -4.640625 0.875 -5.171875 C 1.1875 -5.710938 1.617188 -6.128906 2.171875 -6.421875 C 2.722656 -6.722656 3.335938 -6.875 4.015625 -6.875 C 4.679688 -6.875 5.28125 -6.726562 5.8125 -6.4375 C 6.351562 -6.15625 6.773438 -5.75 7.078125 -5.21875 C 7.390625 -4.6875 7.546875 -4.066406 7.546875 -3.359375 Z M 4.03125 -5.390625 C 3.582031 -5.390625 3.207031 -5.265625 2.90625 -5.015625 C 2.601562 -4.765625 2.421875 -4.421875 2.359375 -3.984375 L 5.6875 -3.984375 C 5.625 -4.410156 5.441406 -4.75 5.140625 -5 C 4.835938 -5.257812 4.46875 -5.390625 4.03125 -5.390625 Z M 4.03125 -5.390625 "/></g></g></g><g fill="#ff6600" fill-opacity="1"><g transform="translate(194.658603, 127.203161)"><g><path d="M 3.640625 -6.875 C 4.691406 -6.875 5.5 -6.625 6.0625 -6.125 C 6.625 -5.625 6.90625 -4.867188 6.90625 -3.859375 L 6.90625 0 L 5.0625 0 L 5.0625 -0.84375 C 4.695312 -0.21875 4.007812 0.09375 3 0.09375 C 2.476562 0.09375 2.023438 0.0078125 1.640625 -0.15625 C 1.265625 -0.332031 0.972656 -0.578125 0.765625 -0.890625 C 0.566406 -1.203125 0.46875 -1.554688 0.46875 -1.953125 C 0.46875 -2.578125 0.703125 -3.070312 1.171875 -3.4375 C 1.648438 -3.800781 2.382812 -3.984375 3.375 -3.984375 L 4.9375 -3.984375 C 4.9375 -4.410156 4.804688 -4.738281 4.546875 -4.96875 C 4.285156 -5.195312 3.894531 -5.3125 3.375 -5.3125 C 3.007812 -5.3125 2.648438 -5.253906 2.296875 -5.140625 C 1.953125 -5.023438 1.660156 -4.875 1.421875 -4.6875 L 0.71875 -6.0625 C 1.082031 -6.320312 1.523438 -6.519531 2.046875 -6.65625 C 2.566406 -6.800781 3.097656 -6.875 3.640625 -6.875 Z M 3.484375 -1.21875 C 3.828125 -1.21875 4.125 -1.296875 4.375 -1.453125 C 4.632812 -1.609375 4.820312 -1.835938 4.9375 -2.140625 L 4.9375 -2.828125 L 3.59375 -2.828125 C 2.78125 -2.828125 2.375 -2.566406 2.375 -2.046875 C 2.375 -1.785156 2.472656 -1.582031 2.671875 -1.4375 C 2.867188 -1.289062 3.140625 -1.21875 3.484375 -1.21875 Z M 3.484375 -1.21875 "/></g></g></g><g fill="#ff6600" fill-opacity="1"><g transform="translate(202.424795, 127.203161)"><g><path d="M 2.78125 -5.875 C 3.019531 -6.207031 3.335938 -6.457031 3.734375 -6.625 C 4.128906 -6.789062 4.585938 -6.875 5.109375 -6.875 L 5.109375 -5.0625 C 4.890625 -5.082031 4.742188 -5.09375 4.671875 -5.09375 C 4.109375 -5.09375 3.664062 -4.929688 3.34375 -4.609375 C 3.03125 -4.296875 2.875 -3.828125 2.875 -3.203125 L 2.875 0 L 0.90625 0 L 0.90625 -6.78125 L 2.78125 -6.78125 Z M 2.78125 -5.875 "/></g></g></g><g fill="#ff6600" fill-opacity="1"><g transform="translate(207.849804, 127.203161)"><g/></g></g><g fill="#ff6600" fill-opacity="1"><g transform="translate(211.411936, 127.203161)"><g><path d="M 9.578125 -6.875 C 10.429688 -6.875 11.109375 -6.625 11.609375 -6.125 C 12.109375 -5.625 12.359375 -4.875 12.359375 -3.875 L 12.359375 0 L 10.390625 0 L 10.390625 -3.578125 C 10.390625 -4.109375 10.273438 -4.503906 10.046875 -4.765625 C 9.828125 -5.035156 9.515625 -5.171875 9.109375 -5.171875 C 8.640625 -5.171875 8.269531 -5.019531 8 -4.71875 C 7.738281 -4.425781 7.609375 -3.988281 7.609375 -3.40625 L 7.609375 0 L 5.640625 0 L 5.640625 -3.578125 C 5.640625 -4.640625 5.210938 -5.171875 4.359375 -5.171875 C 3.898438 -5.171875 3.535156 -5.019531 3.265625 -4.71875 C 3.003906 -4.425781 2.875 -3.988281 2.875 -3.40625 L 2.875 0 L 0.90625 0 L 0.90625 -6.78125 L 2.78125 -6.78125 L 2.78125 -6 C 3.03125 -6.28125 3.335938 -6.492188 3.703125 -6.640625 C 4.066406 -6.796875 4.46875 -6.875 4.90625 -6.875 C 5.382812 -6.875 5.816406 -6.78125 6.203125 -6.59375 C 6.585938 -6.40625 6.898438 -6.128906 7.140625 -5.765625 C 7.421875 -6.117188 7.769531 -6.390625 8.1875 -6.578125 C 8.613281 -6.773438 9.078125 -6.875 9.578125 -6.875 Z M 9.578125 -6.875 "/></g></g></g><g fill="#ff6600" fill-opacity="1"><g transform="translate(224.615726, 127.203161)"><g><path d="M 7.546875 -3.359375 C 7.546875 -3.335938 7.53125 -3.160156 7.5 -2.828125 L 2.375 -2.828125 C 2.46875 -2.410156 2.6875 -2.078125 3.03125 -1.828125 C 3.375 -1.585938 3.800781 -1.46875 4.3125 -1.46875 C 4.664062 -1.46875 4.976562 -1.519531 5.25 -1.625 C 5.53125 -1.726562 5.785156 -1.894531 6.015625 -2.125 L 7.0625 -1 C 6.425781 -0.269531 5.492188 0.09375 4.265625 0.09375 C 3.503906 0.09375 2.828125 -0.0507812 2.234375 -0.34375 C 1.648438 -0.644531 1.195312 -1.054688 0.875 -1.578125 C 0.5625 -2.109375 0.40625 -2.710938 0.40625 -3.390625 C 0.40625 -4.046875 0.5625 -4.640625 0.875 -5.171875 C 1.1875 -5.710938 1.617188 -6.128906 2.171875 -6.421875 C 2.722656 -6.722656 3.335938 -6.875 4.015625 -6.875 C 4.679688 -6.875 5.28125 -6.726562 5.8125 -6.4375 C 6.351562 -6.15625 6.773438 -5.75 7.078125 -5.21875 C 7.390625 -4.6875 7.546875 -4.066406 7.546875 -3.359375 Z M 4.03125 -5.390625 C 3.582031 -5.390625 3.207031 -5.265625 2.90625 -5.015625 C 2.601562 -4.765625 2.421875 -4.421875 2.359375 -3.984375 L 5.6875 -3.984375 C 5.625 -4.410156 5.441406 -4.75 5.140625 -5 C 4.835938 -5.257812 4.46875 -5.390625 4.03125 -5.390625 Z M 4.03125 -5.390625 "/></g></g></g><g fill="#ff6600" fill-opacity="1"><g transform="translate(232.558139, 127.203161)"><g><path d="M 1.65625 -9.4375 C 2.007812 -9.4375 2.300781 -9.328125 2.53125 -9.109375 C 2.757812 -8.890625 2.875 -8.597656 2.875 -8.234375 C 2.875 -8.066406 2.851562 -7.898438 2.8125 -7.734375 C 2.769531 -7.566406 2.679688 -7.316406 2.546875 -6.984375 L 1.8125 -5.15625 L 0.5625 -5.15625 L 1.109375 -7.15625 C 0.898438 -7.25 0.734375 -7.382812 0.609375 -7.5625 C 0.492188 -7.75 0.4375 -7.972656 0.4375 -8.234375 C 0.4375 -8.597656 0.550781 -8.890625 0.78125 -9.109375 C 1.019531 -9.328125 1.3125 -9.4375 1.65625 -9.4375 Z M 4.625 -9.4375 C 4.976562 -9.4375 5.269531 -9.328125 5.5 -9.109375 C 5.726562 -8.890625 5.84375 -8.597656 5.84375 -8.234375 C 5.84375 -8.066406 5.820312 -7.898438 5.78125 -7.734375 C 5.738281 -7.566406 5.648438 -7.316406 5.515625 -6.984375 L 4.78125 -5.15625 L 3.53125 -5.15625 L 4.078125 -7.15625 C 3.867188 -7.25 3.703125 -7.382812 3.578125 -7.5625 C 3.460938 -7.75 3.40625 -7.972656 3.40625 -8.234375 C 3.40625 -8.597656 3.519531 -8.890625 3.75 -9.109375 C 3.988281 -9.328125 4.28125 -9.4375 4.625 -9.4375 Z M 4.625 -9.4375 "/></g></g></g><g fill="#000000" fill-opacity="1"><g transform="translate(27.913444, 72.960654)"><g><path d="M 13.5 -6.78125 L 16.78125 -6.78125 L 16.78125 -4.03125 L 13.171875 -4.03125 L 12.671875 0 L 9.828125 0 L 10.328125 -4.03125 L 6.625 -4.03125 L 6.125 0 L 3.296875 0 L 3.796875 -4.03125 L 0.5 -4.03125 L 0.5 -6.78125 L 4.125 -6.78125 L 4.65625 -10.859375 L 1.359375 -10.859375 L 1.359375 -13.59375 L 4.984375 -13.59375 L 5.484375 -17.625 L 8.3125 -17.625 L 7.8125 -13.59375 L 11.515625 -13.59375 L 12.015625 -17.625 L 14.828125 -17.625 L 14.328125 -13.59375 L 17.609375 -13.59375 L 17.625 -10.859375 L 14 -10.859375 Z M 10.65625 -6.78125 L 11.1875 -10.859375 L 7.484375 -10.859375 L 6.953125 -6.78125 Z M 10.65625 -6.78125 "/></g></g></g><g fill="#000000" fill-opacity="1"><g transform="translate(46.043918, 72.960654)"><g><path d="M 7.78125 -17.625 L 7.78125 0 L 3.703125 0 L 3.703125 -14.359375 L 0.171875 -14.359375 L 0.171875 -17.625 Z M 7.78125 -17.625 "/></g></g></g><g fill="#000000" fill-opacity="1"><g transform="translate(55.914954, 72.960654)"><g/></g></g><g fill="#000000" fill-opacity="1"><g transform="translate(63.041239, 72.960654)"><g><path d="M 9.71875 -17.625 C 11.28125 -17.625 12.632812 -17.363281 13.78125 -16.84375 C 14.9375 -16.320312 15.820312 -15.582031 16.4375 -14.625 C 17.0625 -13.675781 17.375 -12.546875 17.375 -11.234375 C 17.375 -9.941406 17.0625 -8.8125 16.4375 -7.84375 C 15.820312 -6.875 14.9375 -6.132812 13.78125 -5.625 C 12.632812 -5.113281 11.28125 -4.859375 9.71875 -4.859375 L 6.171875 -4.859375 L 6.171875 0 L 2.09375 0 L 2.09375 -17.625 Z M 9.5 -8.1875 C 10.71875 -8.1875 11.644531 -8.445312 12.28125 -8.96875 C 12.925781 -9.5 13.25 -10.253906 13.25 -11.234375 C 13.25 -12.222656 12.925781 -12.984375 12.28125 -13.515625 C 11.644531 -14.046875 10.71875 -14.3125 9.5 -14.3125 L 6.171875 -14.3125 L 6.171875 -8.1875 Z M 9.5 -8.1875 "/></g></g></g><g fill="#000000" fill-opacity="1"><g transform="translate(81.473894, 72.960654)"><g><path d="M 8.265625 0.203125 C 6.835938 0.203125 5.554688 -0.09375 4.421875 -0.6875 C 3.285156 -1.289062 2.398438 -2.117188 1.765625 -3.171875 C 1.128906 -4.234375 0.8125 -5.4375 0.8125 -6.78125 C 0.8125 -8.125 1.128906 -9.320312 1.765625 -10.375 C 2.398438 -11.4375 3.285156 -12.265625 4.421875 -12.859375 C 5.554688 -13.453125 6.835938 -13.75 8.265625 -13.75 C 9.691406 -13.75 10.96875 -13.453125 12.09375 -12.859375 C 13.21875 -12.265625 14.097656 -11.4375 14.734375 -10.375 C 15.367188 -9.320312 15.6875 -8.125 15.6875 -6.78125 C 15.6875 -5.4375 15.367188 -4.234375 14.734375 -3.171875 C 14.097656 -2.117188 13.21875 -1.289062 12.09375 -0.6875 C 10.96875 -0.09375 9.691406 0.203125 8.265625 0.203125 Z M 8.265625 -3.015625 C 9.265625 -3.015625 10.085938 -3.351562 10.734375 -4.03125 C 11.390625 -4.71875 11.71875 -5.632812 11.71875 -6.78125 C 11.71875 -7.914062 11.390625 -8.820312 10.734375 -9.5 C 10.085938 -10.1875 9.265625 -10.53125 8.265625 -10.53125 C 7.253906 -10.53125 6.421875 -10.1875 5.765625 -9.5 C 5.109375 -8.820312 4.78125 -7.914062 4.78125 -6.78125 C 4.78125 -5.632812 5.109375 -4.71875 5.765625 -4.03125 C 6.421875 -3.351562 7.253906 -3.015625 8.265625 -3.015625 Z M 8.265625 -3.015625 "/></g></g></g><g fill="#000000" fill-opacity="1"><g transform="translate(97.967585, 72.960654)"><g><path d="M 6.375 0.203125 C 5.25 0.203125 4.144531 0.0664062 3.0625 -0.203125 C 1.988281 -0.484375 1.132812 -0.835938 0.5 -1.265625 L 1.8125 -4.078125 C 2.414062 -3.691406 3.144531 -3.375 4 -3.125 C 4.863281 -2.882812 5.707031 -2.765625 6.53125 -2.765625 C 8.1875 -2.765625 9.015625 -3.175781 9.015625 -4 C 9.015625 -4.382812 8.785156 -4.660156 8.328125 -4.828125 C 7.878906 -5.003906 7.1875 -5.148438 6.25 -5.265625 C 5.132812 -5.429688 4.21875 -5.625 3.5 -5.84375 C 2.78125 -6.0625 2.15625 -6.445312 1.625 -7 C 1.09375 -7.550781 0.828125 -8.34375 0.828125 -9.375 C 0.828125 -10.226562 1.070312 -10.984375 1.5625 -11.640625 C 2.0625 -12.304688 2.785156 -12.820312 3.734375 -13.1875 C 4.679688 -13.5625 5.804688 -13.75 7.109375 -13.75 C 8.054688 -13.75 9.003906 -13.644531 9.953125 -13.4375 C 10.910156 -13.226562 11.695312 -12.9375 12.3125 -12.5625 L 11 -9.765625 C 9.8125 -10.441406 8.515625 -10.78125 7.109375 -10.78125 C 6.265625 -10.78125 5.628906 -10.660156 5.203125 -10.421875 C 4.785156 -10.191406 4.578125 -9.890625 4.578125 -9.515625 C 4.578125 -9.097656 4.800781 -8.804688 5.25 -8.640625 C 5.707031 -8.472656 6.4375 -8.3125 7.4375 -8.15625 C 8.539062 -7.976562 9.441406 -7.78125 10.140625 -7.5625 C 10.847656 -7.351562 11.460938 -6.972656 11.984375 -6.421875 C 12.503906 -5.867188 12.765625 -5.097656 12.765625 -4.109375 C 12.765625 -3.265625 12.515625 -2.515625 12.015625 -1.859375 C 11.515625 -1.203125 10.78125 -0.691406 9.8125 -0.328125 C 8.84375 0.0234375 7.695312 0.203125 6.375 0.203125 Z M 6.375 0.203125 "/></g></g></g><g fill="#000000" fill-opacity="1"><g transform="translate(111.338811, 72.960654)"><g><path d="M 1.8125 -13.546875 L 5.75 -13.546875 L 5.75 0 L 1.8125 0 Z M 3.765625 -15.4375 C 3.046875 -15.4375 2.457031 -15.644531 2 -16.0625 C 1.550781 -16.488281 1.328125 -17.007812 1.328125 -17.625 C 1.328125 -18.25 1.550781 -18.769531 2 -19.1875 C 2.457031 -19.613281 3.046875 -19.828125 3.765625 -19.828125 C 4.492188 -19.828125 5.082031 -19.625 5.53125 -19.21875 C 5.988281 -18.8125 6.21875 -18.304688 6.21875 -17.703125 C 6.21875 -17.046875 5.988281 -16.503906 5.53125 -16.078125 C 5.082031 -15.648438 4.492188 -15.4375 3.765625 -15.4375 Z M 3.765625 -15.4375 "/></g></g></g><g fill="#000000" fill-opacity="1"><g transform="translate(118.918355, 72.960654)"><g><path d="M 10.546875 -0.65625 C 10.160156 -0.375 9.6875 -0.160156 9.125 -0.015625 C 8.5625 0.128906 7.972656 0.203125 7.359375 0.203125 C 5.742188 0.203125 4.492188 -0.207031 3.609375 -1.03125 C 2.734375 -1.851562 2.296875 -3.0625 2.296875 -4.65625 L 2.296875 -10.21875 L 0.203125 -10.21875 L 0.203125 -13.25 L 2.296875 -13.25 L 2.296875 -16.546875 L 6.21875 -16.546875 L 6.21875 -13.25 L 9.59375 -13.25 L 9.59375 -10.21875 L 6.21875 -10.21875 L 6.21875 -4.703125 C 6.21875 -4.140625 6.363281 -3.703125 6.65625 -3.390625 C 6.957031 -3.078125 7.375 -2.921875 7.90625 -2.921875 C 8.53125 -2.921875 9.0625 -3.085938 9.5 -3.421875 Z M 10.546875 -0.65625 "/></g></g></g><g fill="#000000" fill-opacity="1"><g transform="translate(129.872185, 72.960654)"><g><path d="M 1.8125 -13.546875 L 5.75 -13.546875 L 5.75 0 L 1.8125 0 Z M 3.765625 -15.4375 C 3.046875 -15.4375 2.457031 -15.644531 2 -16.0625 C 1.550781 -16.488281 1.328125 -17.007812 1.328125 -17.625 C 1.328125 -18.25 1.550781 -18.769531 2 -19.1875 C 2.457031 -19.613281 3.046875 -19.828125 3.765625 -19.828125 C 4.492188 -19.828125 5.082031 -19.625 5.53125 -19.21875 C 5.988281 -18.8125 6.21875 -18.304688 6.21875 -17.703125 C 6.21875 -17.046875 5.988281 -16.503906 5.53125 -16.078125 C 5.082031 -15.648438 4.492188 -15.4375 3.765625 -15.4375 Z M 3.765625 -15.4375 "/></g></g></g><g fill="#000000" fill-opacity="1"><g transform="translate(137.451729, 72.960654)"><g><path d="M 8.265625 0.203125 C 6.835938 0.203125 5.554688 -0.09375 4.421875 -0.6875 C 3.285156 -1.289062 2.398438 -2.117188 1.765625 -3.171875 C 1.128906 -4.234375 0.8125 -5.4375 0.8125 -6.78125 C 0.8125 -8.125 1.128906 -9.320312 1.765625 -10.375 C 2.398438 -11.4375 3.285156 -12.265625 4.421875 -12.859375 C 5.554688 -13.453125 6.835938 -13.75 8.265625 -13.75 C 9.691406 -13.75 10.96875 -13.453125 12.09375 -12.859375 C 13.21875 -12.265625 14.097656 -11.4375 14.734375 -10.375 C 15.367188 -9.320312 15.6875 -8.125 15.6875 -6.78125 C 15.6875 -5.4375 15.367188 -4.234375 14.734375 -3.171875 C 14.097656 -2.117188 13.21875 -1.289062 12.09375 -0.6875 C 10.96875 -0.09375 9.691406 0.203125 8.265625 0.203125 Z M 8.265625 -3.015625 C 9.265625 -3.015625 10.085938 -3.351562 10.734375 -4.03125 C 11.390625 -4.71875 11.71875 -5.632812 11.71875 -6.78125 C 11.71875 -7.914062 11.390625 -8.820312 10.734375 -9.5 C 10.085938 -10.1875 9.265625 -10.53125 8.265625 -10.53125 C 7.253906 -10.53125 6.421875 -10.1875 5.765625 -9.5 C 5.109375 -8.820312 4.78125 -7.914062 4.78125 -6.78125 C 4.78125 -5.632812 5.109375 -4.71875 5.765625 -4.03125 C 6.421875 -3.351562 7.253906 -3.015625 8.265625 -3.015625 Z M 8.265625 -3.015625 "/></g></g></g><g fill="#000000" fill-opacity="1"><g transform="translate(153.94542, 72.960654)"><g><path d="M 10.046875 -13.75 C 11.722656 -13.75 13.078125 -13.242188 14.109375 -12.234375 C 15.148438 -11.234375 15.671875 -9.738281 15.671875 -7.75 L 15.671875 0 L 11.734375 0 L 11.734375 -7.15625 C 11.734375 -8.226562 11.5 -9.03125 11.03125 -9.5625 C 10.5625 -10.09375 9.878906 -10.359375 8.984375 -10.359375 C 7.992188 -10.359375 7.207031 -10.050781 6.625 -9.4375 C 6.039062 -8.820312 5.75 -7.910156 5.75 -6.703125 L 5.75 0 L 1.8125 0 L 1.8125 -13.546875 L 5.5625 -13.546875 L 5.5625 -11.96875 C 6.082031 -12.539062 6.726562 -12.976562 7.5 -13.28125 C 8.28125 -13.59375 9.128906 -13.75 10.046875 -13.75 Z M 10.046875 -13.75 "/></g></g></g><g fill="#000000" fill-opacity="1"><g transform="translate(171.345641, 72.960654)"><g><path d="M 1.3125 -17.625 L 6 -17.625 L 5.21875 -6.125 L 2.09375 -6.125 Z M 3.65625 0.203125 C 2.96875 0.203125 2.390625 -0.0195312 1.921875 -0.46875 C 1.460938 -0.914062 1.234375 -1.457031 1.234375 -2.09375 C 1.234375 -2.726562 1.457031 -3.257812 1.90625 -3.6875 C 2.363281 -4.113281 2.945312 -4.328125 3.65625 -4.328125 C 4.351562 -4.328125 4.925781 -4.113281 5.375 -3.6875 C 5.832031 -3.257812 6.0625 -2.726562 6.0625 -2.09375 C 6.0625 -1.457031 5.832031 -0.914062 5.375 -0.46875 C 4.914062 -0.0195312 4.34375 0.203125 3.65625 0.203125 Z M 3.65625 0.203125 "/></g></g></g></svg>