<svg width="100" height="100" viewBox="0 0 100 100" fill="none" xmlns="http://www.w3.org/2000/svg">
<path d="M94.3396 4.90567C93.3962 4.15096 92.0754 3.58492 90.9434 3.39624C90.1887 3.39624 90 3.39624 89.4339 3.39624H88.1132C87.7358 3.39624 71.3207 3.39624 71.5094 3.39624H49.4339H27.3585C26.6037 3.39624 9.81129 3.39624 10.7547 3.39624L9.43393 3.58492C8.8679 3.58492 8.30186 3.58492 7.54714 3.7736C5.09431 4.717 3.3962 6.98115 3.20752 9.43398V12.2642C3.20752 12.6415 3.20752 29.0566 3.20752 28.8679C3.20752 36.2264 3.3962 43.5849 3.3962 50.9434L3.58488 73.0189C3.58488 73.7736 3.77356 90.5661 3.77356 89.6227V90.9434C3.77356 91.5095 3.96224 92.0755 3.96224 92.6415C4.71695 94.717 6.41507 96.2264 8.67922 96.6038C9.81129 96.7925 10.566 96.6038 11.5094 96.6038L16.9811 96.4151C30.9434 96.2264 35.0943 96.0378 50 95.6604C42.6415 95.4717 35.283 95.283 27.9245 95.0944C27.1698 95.0944 10.3773 94.717 11.3207 94.717C10.3773 94.717 9.43393 94.717 8.67922 94.5283C7.16978 94.151 6.03771 93.2076 5.47167 91.5095C5.47167 91.1321 5.28299 90.7547 5.28299 90.3774V89.0566C6.03771 28.4906 5.84903 33.7736 5.84903 28.4906V21.1321C12.8302 21.8868 19.8113 22.2642 26.6037 22.4528C34.1509 22.8302 41.5094 22.8302 49.0566 22.8302C56.6037 22.8302 63.9622 22.6415 71.5094 22.4528C78.4905 22.2642 85.4717 21.8868 92.2641 21.1321V27.3585C92.2641 34.151 92.2641 38.3019 92.8302 87.9245V90.5661C92.8302 91.3208 92.4528 92.0755 92.0754 92.6415C91.6981 93.2076 90.9434 93.7736 90.3773 94.151C89.6226 94.5283 89.0566 94.5283 87.9245 94.5283L82.4528 94.717C68.4905 94.9057 63.9622 95.0944 49.4339 95.4717C56.7924 95.6604 64.1509 95.8491 71.5094 96.0378C71.8868 96.0378 89.0566 96.4151 88.1132 96.4151C88.8679 96.4151 90.1886 96.4151 91.132 96.0378C93.2075 95.283 94.5283 93.3962 94.9056 91.1321C94.9056 90 94.9056 89.2453 94.9056 88.3019C94.9056 87.9245 95.0943 71.5095 95.0943 71.6981L95.283 49.6227C95.283 42.2642 95.4717 34.9057 95.4717 27.5472C95.4717 27.3585 95.4717 9.43398 95.4717 9.62266C95.4717 9.05662 95.4717 8.3019 95.283 7.73586C96.0377 6.98115 95.283 5.84907 94.3396 4.90567ZM72.4528 19.8113C64.9056 19.434 57.5471 19.434 50 19.434C42.4528 19.434 35.0943 19.6227 27.5471 19.8113C20.566 20 13.5849 20.3774 6.79242 21.1321V17.7359V12.2642V9.62266C6.79242 8.49058 7.54714 7.3585 8.67922 6.98115C8.8679 6.98115 9.24525 6.79247 9.43393 6.79247C38.6792 7.16983 -20.7547 6.79247 49.4339 7.16983C52.6415 7.16983 89.6226 6.98115 89.4339 6.98115H90.7547C91.3207 6.98115 91.8868 7.16983 92.2641 7.54718C92.6415 7.92454 93.0188 8.49058 93.2075 9.05662C93.2075 9.43398 93.3962 9.62266 93.3962 10C93.3962 10.1887 93.3962 17.3585 93.3962 16.9811V21.3208C86.4151 20.5661 79.4339 20.1887 72.4528 19.8113Z" fill="#FC7942"/>
<path d="M14.3394 12.4528C14.1507 12.8302 13.7734 13.2075 13.396 13.9623C13.7734 14.717 13.962 15.0943 14.3394 15.4717C14.9054 16.0377 15.6601 16.0377 16.2262 15.4717C16.6035 15.283 16.9809 14.717 17.3583 13.9623C16.9809 13.2075 16.6035 12.8302 16.4149 12.4528C15.6601 12.0755 15.0941 12.0755 14.3394 12.4528Z" fill="#FC7942"/>
<path d="M25.6604 12.4528C25.283 12.8302 24.9057 13.2075 24.5283 13.9623C24.9057 14.717 25.0944 15.0943 25.4717 15.4717C26.0378 16.0377 26.7925 16.0377 27.3585 15.4717C27.7359 15.0943 27.9245 14.717 28.3019 13.9623C27.9245 13.2075 27.7359 12.8302 27.3585 12.4528C26.9812 12.0755 26.2264 12.0755 25.6604 12.4528Z" fill="#FC7942"/>
<path d="M36.7925 12.4528C36.4152 12.8302 36.2265 13.2075 35.8491 13.9623C36.2265 14.717 36.4152 15.0943 36.7925 15.4717C37.3586 16.0377 38.1133 16.0377 38.6793 15.4717C39.0567 15.0943 39.2453 14.717 39.6227 13.9623C39.2453 13.2075 39.0567 12.8302 38.6793 12.4528C38.1133 12.0755 37.3586 12.0755 36.7925 12.4528Z" fill="#FC7942"/>
<path d="M59.6225 12.6415C56.6037 12.8302 53.5848 13.2076 50.5659 13.9623C53.5848 14.717 56.6037 15.0944 59.6225 15.4717C66.0376 16.0378 71.698 16.0378 77.5471 15.4717C80.5659 15.2831 83.5848 14.717 86.6037 13.9623C83.5848 13.2076 80.5659 12.8302 77.5471 12.4529C71.698 12.0755 65.8489 11.8868 59.6225 12.6415Z" fill="#FC7942"/>
<path d="M67.3584 80C61.5094 79.6227 55.6603 79.6227 49.6226 79.6227C43.7735 79.6227 37.9245 79.8114 31.8867 80C26.0377 80.1887 20.1886 80.7548 14.1509 81.5095C19.9999 82.2642 25.849 82.6415 31.8867 83.0189C37.7358 83.3963 43.5848 83.3963 49.6226 83.3963C55.4716 83.3963 61.3207 83.2076 67.3584 83.0189C73.2075 82.8302 79.0565 82.2642 85.0943 81.5095C79.0565 80.7548 73.2075 80.1887 67.3584 80Z" fill="#FC7942"/>
<path d="M41.5092 66.2264C36.9809 66.2264 32.4526 66.4151 27.9243 66.6038C23.396 66.7925 18.8677 67.3585 14.3394 68.1132C18.8677 68.8679 23.396 69.2453 27.9243 69.6227C32.4526 70 36.9809 70 41.5092 70C46.0375 70 50.5658 69.8114 55.0941 69.6227C59.6224 69.434 64.1507 68.8679 68.679 68.1132C64.1507 67.3585 59.6224 66.9812 55.0941 66.6038C50.5658 66.2264 46.0375 66.2264 41.5092 66.2264Z" fill="#FC7942"/>
<path d="M18.6791 53.585H21.3206H26.6036C39.8111 53.2076 53.2074 52.8303 66.4149 52.4529V52.6416L67.1696 56.4152C67.3583 56.7925 67.1696 56.7925 67.547 57.7359C67.9243 58.4906 68.4904 59.0567 69.2451 59.2454C69.9998 59.434 70.7545 59.434 71.3206 59.0567C72.0753 58.4906 72.0753 58.302 72.264 58.1133L72.6413 57.7359L72.83 57.5472L73.5847 58.1133L76.4149 60.5661C76.6036 60.7548 78.8677 62.4529 78.6791 62.4529L79.0564 62.8303C79.2451 63.0189 79.4338 63.0189 79.8111 63.2076C80.3772 63.2076 80.7545 63.0189 81.1319 62.8303L81.6979 62.0755L82.83 60.5661L81.1319 61.1322L80.3772 61.6982C80.1885 61.8869 79.8111 61.8869 79.8111 61.5095L79.6224 61.1322C79.4338 60.9435 77.7357 58.6793 77.7357 58.868L75.2828 56.0378L74.7168 55.2831L74.5281 55.0944C74.1507 54.7171 73.7734 54.5284 73.2074 54.3397C72.4526 54.151 71.8866 54.3397 71.1319 54.7171C70.9432 54.7171 70.7545 54.9057 70.7545 55.0944L70.5658 55.2831L70.3772 55.4718L69.8111 51.6982C69.6224 50.3774 69.4338 49.2454 69.2451 47.9246L69.0564 46.2265L70.7545 46.4152L74.5281 46.9812L78.113 47.5472L77.9243 47.7359L77.7357 47.9246C77.7357 47.9246 77.547 48.1133 77.3583 48.302C76.6036 49.2454 76.7923 50.7548 77.7357 51.5095L77.9243 51.6982L78.6791 52.2642L81.5092 54.7171C81.6979 54.9057 83.9621 56.6038 83.7734 56.6038L84.1507 56.7925C84.3394 56.9812 84.3394 57.1699 84.3394 57.3586L83.7734 58.4906L82.6413 60.0001L84.1507 58.868L84.9055 58.302C85.2828 57.9246 85.4715 57.5472 85.4715 56.9812C85.4715 56.7925 85.2828 56.4152 85.0941 56.2265L84.9055 56.0378C84.7168 55.8491 83.0187 53.585 83.0187 53.7737L81.8866 52.4529H82.83C83.7734 52.2642 84.7168 51.8869 85.2828 51.1321C86.0375 50.3774 86.2262 49.2454 86.2262 48.302L86.4149 45.6604C86.7923 40.0001 86.9809 36.4152 86.9809 34.5284C86.9809 34.151 86.9809 33.9623 86.9809 33.585C86.7923 31.6982 85.2828 30.0001 83.396 29.434C83.0187 29.2454 82.83 29.2454 82.4526 29.2454H81.8866C81.6979 29.2454 77.547 29.2454 77.7357 29.2454C69.4338 29.2454 60.7545 29.0567 25.6602 29.2454H20.3772H17.7357C16.6036 29.2454 15.0941 29.6227 14.1507 30.5661C13.2074 31.5095 12.4526 32.6416 12.4526 33.9623V35.4718V36.7925V42.0755V47.3586V48.6793C12.4526 49.0567 12.4526 49.8114 12.6413 50.3774C13.0187 51.5095 13.9621 52.6416 14.9055 53.2076C16.6036 53.585 18.113 53.585 18.6791 53.585ZM16.0375 47.1699V41.8869C16.0375 40.5661 16.0375 35.0944 16.0375 35.4718C16.0375 35.0944 16.0375 34.5284 16.0375 34.3397C16.0375 33.9623 16.4149 33.3963 16.6036 33.2076C16.9809 32.8303 17.3583 32.8303 17.9243 32.8303H20.5658H25.8489C58.8677 33.0189 73.5847 32.8303 77.9243 32.8303C78.113 32.8303 82.0753 32.8303 81.8866 32.8303H82.4526H82.83C83.2074 33.0189 83.5847 33.2076 83.9621 33.585C84.1507 33.7737 84.1507 33.9623 84.3394 34.151V34.5284C84.3394 36.4152 84.5281 39.8114 84.9055 45.6604L85.0941 48.302C85.2828 49.0567 85.0941 49.8114 84.7168 50.3774C84.3394 50.9435 83.7734 51.5095 83.0187 51.6982C82.6413 51.8869 82.264 51.8869 81.8866 51.8869L80.5658 50.9435L79.9998 50.1888L80.1885 50.0001L80.5658 49.6227C80.7545 49.434 80.9432 49.434 81.5092 48.6793C81.8866 48.1133 81.8866 47.1699 81.6979 46.6038C81.5092 45.8491 80.9432 45.2831 80.1885 44.9057C79.2451 44.5284 79.2451 44.7171 78.8677 44.5284L75.0941 43.7737L71.3206 43.0189C71.1319 43.0189 68.8677 42.6416 69.0564 42.6416C68.8677 42.6416 68.8677 42.6416 68.3017 42.4529C67.547 42.4529 66.6036 42.8303 66.0375 43.3963C65.4715 43.9623 65.0941 44.9057 65.0941 45.6604C65.0941 46.2265 65.0941 46.2265 65.2828 46.4152C65.2828 46.6038 65.6602 48.868 65.6602 48.6793C65.8489 49.8114 66.0375 50.9435 66.2262 52.0755C40.5658 50.9435 18.3017 50.7548 18.6791 50.7548C17.7357 50.7548 17.3583 50.7548 16.7923 50.3774C16.4149 50.1888 16.0375 49.6227 15.8489 49.2454C15.8489 49.0567 15.8489 48.868 15.8489 48.4906L16.0375 47.1699Z" fill="#FC7942"/>
</svg>
