<svg width="100" height="100" viewBox="0 0 100 100" fill="none" xmlns="http://www.w3.org/2000/svg">
<path d="M94.7168 16.2265C94.1508 15.4718 84.9055 6.41515 85.0942 6.60383C84.7168 6.22647 84.5282 6.03779 83.7734 5.47175C83.2074 5.09439 82.4527 4.71703 81.8866 4.52836C80.5659 4.151 78.8678 4.33968 77.7357 4.90571C77.1697 5.28307 76.4149 5.84911 76.0376 6.22647C69.0564 13.585 60.7546 22.4529 54.1508 30.3774L38.3017 14.5284C38.1131 14.3397 31.1319 7.54722 31.3206 7.7359C30.7546 7.35854 30.5659 6.79251 29.8112 6.22647C28.3017 5.09439 26.4149 4.52836 24.7168 5.09439C23.7734 5.28307 23.0187 5.66043 22.264 6.22647C21.5093 6.79251 22.264 6.03779 7.16965 21.6982C6.98098 21.8868 6.60362 22.2642 6.41494 22.4529C6.22626 22.8302 5.8489 23.2076 5.8489 23.585C5.47154 24.3397 5.28286 25.0944 5.28286 26.0378C5.28286 27.7359 6.22626 29.434 7.16965 30.3774C23.3961 45.8491 8.11305 31.3208 31.1319 53.2076C25.0942 58.1133 19.4338 63.3963 13.7734 68.6793C13.5848 68.868 13.5847 68.868 13.3961 69.0567V69.2453C11.698 73.2076 10.1885 77.3585 8.67909 81.3208C7.16965 85.2831 5.66022 89.434 4.15079 93.3963C3.96211 93.7736 3.96211 94.3397 4.15079 94.717C4.52815 95.6604 5.66022 96.2265 6.60362 95.8491C10.5659 94.3397 14.7168 92.8302 18.6791 91.3208C22.6414 89.8114 26.7923 88.1133 30.7546 86.6038H30.9432C31.1319 86.6038 31.1319 86.4151 31.1319 86.4151C36.4149 80.7548 41.698 74.9057 46.6036 68.868C51.698 74.3397 56.981 79.8114 62.0753 85.2831L67.547 90.9435L68.8678 92.2642C69.4338 92.6416 69.6225 93.2076 70.3772 93.7736C71.698 94.717 73.3961 95.0944 75.0942 94.9057C75.8489 94.717 76.6036 94.3397 77.3583 93.9623C78.1131 93.3963 78.4904 93.0189 78.8678 92.4529C79.2451 92.0755 93.9621 77.9246 92.83 78.868C93.0187 78.6793 93.3961 78.3019 93.5847 77.9246C95.0942 76.0378 95.2829 73.7736 94.3395 71.6982C94.1508 71.3208 93.9621 70.9435 93.5847 70.5661C93.3961 70.1887 93.0187 69.8114 92.83 69.6227L81.8866 58.4906L69.8112 45.8491C75.4715 41.1321 80.9432 36.2265 86.4149 31.1321C89.2451 28.6793 94.1508 23.7736 93.9621 23.9623C94.3395 23.585 94.9055 23.0189 95.2829 22.2642C96.0376 20.9435 96.0376 19.434 95.6602 18.1133C95.4715 17.3585 95.0942 16.7925 94.7168 16.2265ZM17.547 87.9246C14.7168 88.868 11.8866 90.0001 9.05645 90.9435C9.99984 88.1133 11.1319 85.2831 12.0753 82.4529C13.3961 78.868 14.5281 75.0944 15.8489 71.5095C16.4149 72.6416 16.981 73.585 17.7357 74.5284C18.8678 76.0378 19.9998 77.3585 21.3206 78.6793C22.6414 80.0001 23.9621 81.1321 25.4715 82.2642C26.4149 83.0189 27.547 83.585 28.4904 84.151C24.9055 85.2831 21.3206 86.6038 17.547 87.9246ZM74.9055 56.0378C74.7168 56.0378 74.5282 56.2265 74.3395 56.2265C73.5848 56.6038 73.0187 56.9812 72.4527 57.5472C71.8866 58.1133 71.5093 58.6793 71.1319 59.434C70.7546 60.1887 70.5659 60.9435 70.5659 62.0755C73.0187 62.0755 75.4715 60.5661 76.6036 58.1133C76.6036 57.9246 76.7923 57.7359 76.7923 57.5472L79.8112 60.5661L84.3395 64.9057C83.5848 65.2831 82.83 65.6604 82.264 66.0378C80.1885 67.3585 78.1131 69.434 76.6036 71.6982C75.8489 72.8302 75.2829 74.151 74.7168 75.6604C76.2263 75.2831 77.3583 74.5284 78.6791 73.7736C80.9432 72.2642 83.0187 70.1887 84.3395 68.1133C84.7168 67.3585 85.0942 66.7925 85.4715 66.0378L90.9432 71.5095C92.4527 72.8302 92.4527 74.717 90.9432 76.0378C90.5659 76.4151 77.1697 90.1887 77.3583 90.0001C76.4149 91.1321 75.8489 91.6982 74.9055 91.8868C73.9621 92.0755 73.0187 91.8868 72.264 91.3208C71.8866 91.1321 71.3206 90.5661 70.9432 90.1887C70.7546 90.0001 63.3961 83.0189 63.9621 83.3963C56.4149 76.2265 49.0564 69.0567 41.3206 62.0755C43.2074 64.151 45.2829 66.2265 47.1697 68.3019C41.3206 73.2076 35.6602 78.3019 29.9998 83.585C29.4338 82.2642 28.6791 81.1321 27.9244 80.0001C26.7923 78.4906 25.6602 77.1699 24.3395 75.8491C23.0187 74.5284 21.698 73.3963 20.1885 72.2642C19.0564 71.5095 17.9244 70.7548 16.6036 70.1887C21.698 64.717 26.7923 59.0567 31.698 53.2076C34.9055 56.2265 38.1131 59.2453 41.5093 62.2642C30.7546 50.5661 9.62249 28.6793 9.43381 28.4906C7.92437 26.9812 7.92437 24.717 9.62249 23.3963C24.3395 9.05666 24.5281 8.86798 24.7168 8.6793L25.8489 8.11326C26.6036 7.92458 27.547 8.11326 28.1131 8.6793C28.3017 8.86798 28.8678 9.43402 29.2451 9.81137C29.4338 10.0001 34.1508 14.717 33.9621 14.5284C33.2074 14.9057 32.4527 15.2831 31.8866 15.6604C29.8112 16.9812 27.7357 19.0567 26.2263 21.3208C25.4715 22.4529 24.9055 23.7736 24.3395 25.2831C25.8489 24.9057 26.981 24.151 28.3017 23.3963C30.5659 21.8868 32.6414 19.8114 33.9621 17.7359C34.3395 17.1699 34.7168 16.4151 35.0942 15.6604L35.8489 16.7925L41.1319 22.0755C40.9432 22.0755 40.7546 22.2642 40.7546 22.4529C40.5659 22.6416 40.3772 23.0189 40.1885 23.585C40.1885 24.151 40.1885 24.5284 40.3772 25.4718C41.1319 25.8491 41.698 25.8491 42.264 25.6604C42.6414 25.6604 43.0187 25.4718 43.3961 25.0944C43.5848 24.9057 43.5848 24.9057 43.7734 24.717L49.8112 30.7548C49.6225 30.7548 49.4338 30.9434 49.2451 30.9434C48.4904 31.3208 47.9244 31.6982 47.3583 32.2642C46.7923 32.8302 46.4149 33.3963 46.0376 34.151C45.6602 34.9057 45.4715 35.6604 45.4715 36.7925C46.6036 36.7925 47.3583 36.6038 48.1131 36.2265C48.8678 35.8491 49.4338 35.4718 49.9998 34.9057C50.5659 34.3397 50.9432 33.7736 51.3206 33.0189C51.3206 32.8302 51.5093 32.6416 51.5093 32.4529L57.7357 38.6793L58.8678 39.8114C58.1131 40.1887 57.547 40.5661 56.981 40.9435C55.8489 41.6982 54.7168 42.6416 53.7734 43.585C52.83 44.5284 51.8866 45.6604 51.1319 46.7925C50.3772 47.9246 49.8112 49.2453 49.2451 50.7548C50.7546 50.3774 51.8866 49.6227 53.2074 48.868C54.3395 48.1133 55.4715 47.1699 56.4149 46.2265C57.3583 45.2831 58.3017 44.151 59.0564 43.0189C59.4338 42.4529 59.8112 41.6982 60.1885 41.1321L66.4149 47.3585C66.2263 47.3585 66.2263 47.5472 66.0376 47.5472C65.8489 47.7359 65.6602 48.1133 65.4715 48.6793C65.4715 49.2453 65.4715 49.6227 65.6602 50.5661C66.4149 50.9434 66.981 50.9434 67.547 50.7548C67.9244 50.7548 68.3017 50.5661 68.6791 50.1887C68.8678 50.0001 68.8678 50.0001 68.8678 49.8114L74.9055 56.0378ZM69.6225 45.6604L60.3772 36.2265L54.3395 30.3774C59.2451 26.2265 64.1508 21.8868 68.8678 17.5472C71.1319 22.0755 74.9055 26.0378 78.8678 28.868C79.9998 29.6227 81.1319 30.3774 82.4527 31.1321C78.1131 35.8491 73.7734 40.5661 69.6225 45.6604ZM92.0753 20.7548C91.8866 21.1321 91.8866 21.1321 91.5093 21.5095C83.5848 29.6227 87.1697 26.0378 83.2074 30.3774C82.6413 29.0567 81.8866 27.9246 80.9432 26.7925C78.1131 23.0189 74.1508 19.0567 69.6225 16.7925C69.9998 16.4151 72.6413 14.151 78.4904 8.49062C78.8678 8.11326 78.8678 8.11326 79.2451 7.92458C79.8112 7.7359 80.3772 7.7359 80.7546 7.7359C81.3206 7.92458 81.5093 8.11326 82.4527 9.05666C92.6414 19.2453 91.8866 18.4906 92.264 19.0567C92.264 19.6227 92.264 20.1887 92.0753 20.7548Z" fill="#FC7942"/>
</svg>
