<svg width="100" height="100" viewBox="0 0 100 100" fill="none" xmlns="http://www.w3.org/2000/svg">
<path d="M98.1134 91.3207C98.1134 91.132 98.1134 88.6792 98.1134 88.8679C98.1134 87.7358 98.1134 86.7924 98.1134 85.4716C97.9247 83.2075 96.2266 81.3207 93.9625 80.9433C93.5851 80.9433 93.2078 80.9433 92.8304 80.9433H92.0757H89.2455C90.1889 68.8679 90.1889 57.5471 90.3776 55.4716V54.3396C90.3776 53.7735 90.1889 53.0188 90.0002 52.4528C89.4342 51.132 88.1134 50.3773 86.7927 50.1886H82.2644H77.7361C76.4153 50.1886 75.0946 51.132 74.5285 52.4528C74.1512 53.0188 74.1512 53.9622 74.1512 54.3396V55.4716C74.1512 57.3584 74.3398 69.2452 75.2832 81.3207C72.8304 81.3207 70.5662 81.5094 68.1134 81.5094C69.0568 67.3584 69.2455 53.3962 69.4342 39.4339C69.4342 39.2452 69.4342 38.6792 69.2455 38.1131C68.8681 36.6037 67.7361 35.4716 66.2266 35.283C66.0379 35.283 65.6606 35.283 65.4719 35.283H65.0946C64.9059 35.283 60.9436 35.283 61.1323 35.283C60.9436 35.283 56.9813 35.283 57.17 35.283H56.7927C54.9059 35.283 53.3964 36.6037 53.0191 38.3018C52.8304 38.6792 52.8304 39.4339 52.8304 39.6226C53.0191 52.8301 53.0191 64.7169 54.1512 82.2641C52.8304 82.2641 51.6983 82.2641 50.3776 82.4528C51.6983 82.4528 52.8304 82.4528 54.1512 82.6414C54.1512 82.8301 54.3398 83.0188 54.5285 83.0188C55.4719 83.0188 56.4153 82.8301 57.3587 82.8301C63.5851 83.0188 70.0002 83.2075 76.2266 83.3962L89.0568 83.7735H92.2644H93.0191H93.5851C94.7172 83.9622 95.4719 84.9056 95.4719 86.0377V89.2452V92.2641C95.4719 93.2075 94.7172 93.9622 93.7738 94.1509C93.5851 94.1509 93.3964 94.1509 93.2078 94.1509C36.7927 93.5848 6.03795 94.1509 7.73606 94.1509C7.54738 94.1509 7.3587 94.1509 7.17002 94.1509C6.22663 93.9622 5.47191 93.2075 5.47191 92.2641V89.2452V86.0377C5.47191 85.0943 6.22663 84.1509 7.3587 83.7735H7.92474H8.67946H11.887L24.7172 83.3962C30.7549 83.2075 36.7927 83.0188 43.0191 82.8301C44.1512 83.0188 45.2832 83.0188 46.4153 83.2075C46.7927 83.2075 46.9813 83.0188 46.9813 82.6414C48.1134 82.6414 49.4342 82.6414 50.5662 82.4528C49.4342 82.4528 48.1134 82.4528 46.9813 82.2641C47.9247 70.3773 48.1134 57.7358 48.1134 55.6603V54.5282C48.1134 53.9622 47.9247 53.2075 47.7361 52.6414C47.17 51.3207 45.8493 50.566 44.5285 50.3773H40.0002H35.4719C34.1512 50.3773 32.8304 51.3207 32.2644 52.6414C31.887 53.2075 31.887 54.1509 31.887 54.5282V55.6603C31.887 57.5471 32.0757 69.8113 33.0191 81.6981C30.5662 81.6981 28.3021 81.5094 25.8493 81.5094C26.4153 60.7547 26.4153 39.2452 26.4153 39.4339C26.4153 39.2452 26.4153 38.6792 26.2266 38.1131C25.8493 36.6037 24.7172 35.4716 23.2078 35.283C23.0191 35.283 22.6417 35.283 22.453 35.283H22.0757C21.887 35.283 17.9247 35.283 18.1134 35.283C17.9247 35.283 13.9625 35.283 14.1512 35.283H13.7738C13.5851 35.283 13.2078 35.283 13.0191 35.283C11.5096 35.6603 10.3776 36.7924 10.0002 38.1131C9.81153 38.4905 9.81153 39.2452 9.81153 39.4339C10.0002 55.849 10.3776 70.1886 11.1323 80.9433H8.11342H7.3587C6.98134 80.9433 6.60398 80.9433 6.22663 80.9433C3.96248 81.3207 2.26436 83.3962 2.07568 85.4716V88.8679C2.07568 89.0565 2.07568 91.5094 2.07568 91.3207V92.2641C2.07568 93.7735 3.01908 95.283 4.15116 96.2264C4.71719 96.6037 5.47191 96.9811 6.22663 97.1698C6.60398 97.1698 6.98134 97.3584 7.3587 97.3584H8.11342C34.5285 97.5471 96.7927 97.3584 92.8304 97.3584C93.2078 97.3584 93.5851 97.3584 93.9625 97.1698C96.2266 96.6037 97.9247 94.7169 98.1134 92.2641C98.1134 91.6981 98.1134 91.5094 98.1134 91.3207ZM56.9813 81.8867C56.2266 81.8867 55.4719 81.6981 54.7172 81.6981C55.8493 64.1509 55.8493 50.566 56.0379 39.4339C56.0379 39.0565 56.0379 39.2452 56.0379 39.0565C56.0379 38.8679 56.2266 38.8679 56.2266 38.8679H57.3587H60.5662H63.7738H64.9059C64.9059 38.8679 65.0946 38.8679 65.0946 39.0565V39.4339C65.2832 52.4528 65.2832 63.9622 66.4153 81.5094C63.3964 81.6981 60.1889 81.6981 56.9813 81.8867ZM76.2266 81.3207C77.17 69.9999 77.3587 57.1697 77.3587 55.4716V54.3396C77.3587 54.1509 77.3587 54.1509 77.3587 54.1509L77.5474 53.9622H81.887H86.2266C86.4153 53.9622 86.4153 53.9622 86.4153 54.1509V54.3396V55.4716C86.4153 57.5471 86.604 68.8679 87.5474 80.9433L76.2266 81.3207ZM34.7172 55.4716V54.3396C34.7172 54.1509 34.7172 54.1509 34.7172 54.1509L34.9059 53.9622H39.2455H43.5851C43.7738 53.9622 43.7738 53.9622 43.7738 54.1509V54.3396V55.4716C43.7738 57.3584 43.9625 69.6226 44.9059 81.6981C43.9625 81.6981 43.0191 81.8867 42.2644 81.8867C39.2455 81.6981 36.4153 81.6981 33.3964 81.5094C34.5285 70.3773 34.7172 56.9811 34.7172 55.4716ZM13.3964 39.4339C13.3964 39.0565 13.3964 39.2452 13.3964 39.0565C13.3964 38.8679 13.5851 38.8679 13.5851 38.8679H14.7172H17.9247H21.1323H22.2644C22.2644 38.8679 22.453 38.8679 22.453 39.0565V39.4339C22.6417 56.2264 23.0191 70.7547 23.7738 81.3207L11.887 80.9433C13.3964 60.566 13.3964 39.2452 13.3964 39.4339Z" fill="#FC7942"/>
<path d="M19.8116 16.9811C19.2456 16.7924 18.4909 16.6037 17.7361 16.415V12.0754C18.6795 12.0754 19.4343 12.2641 20.3777 12.6415H20.5663C20.755 12.6415 20.9437 12.6415 21.1324 12.4528C21.321 12.2641 21.3211 12.0754 21.3211 11.8867C21.3211 11.5094 21.1324 11.3207 20.755 11.132C19.8116 10.7547 18.6795 10.566 17.5475 10.566V9.24524C17.5475 9.05656 17.5475 9.05656 17.3588 8.86788C17.3588 8.86788 17.1701 8.6792 16.9814 8.6792C17.1701 8.86788 16.9814 8.86788 16.9814 9.05656C16.9814 9.05656 16.7927 9.24524 16.7927 9.43392V10.7547C15.8494 10.7547 15.0946 10.9434 14.5286 11.3207C13.9626 11.5094 13.5852 11.8867 13.2078 12.4528C12.8305 13.0188 12.6418 13.5849 12.6418 14.1509C12.6418 14.9056 12.8305 15.4717 13.2078 15.849C13.7739 16.415 14.1512 16.7924 14.7173 16.9811C15.2833 17.1698 16.038 17.5471 16.7927 17.7358V21.6981C15.6607 21.6981 14.5286 21.5094 13.5852 20.9433C13.3965 20.9433 13.3965 20.9433 13.2078 20.9433C13.0192 20.9433 12.8305 20.9433 12.6418 21.132C12.4531 21.3207 12.4531 21.5094 12.4531 21.6981C12.4531 21.8867 12.4531 22.0754 12.6418 22.0754C12.6418 22.2641 12.8305 22.2641 13.0192 22.2641C14.1512 22.8301 15.472 23.0188 16.7927 23.0188V24.3396C16.7927 24.5283 16.7927 24.5283 16.9814 24.5283L17.1701 24.7169C17.3588 24.7169 17.3588 24.7169 17.5475 24.5283L17.7361 24.3396V23.0188C18.4909 23.0188 19.2456 22.8301 20.0003 22.4528C20.5663 22.0754 21.1324 21.6981 21.5097 21.3207C21.8871 20.7547 22.0758 20.1886 22.0758 19.6226C22.0758 18.8679 21.8871 18.3018 21.5097 17.7358C20.755 17.5471 20.3777 17.1698 19.8116 16.9811ZM16.7927 16.0377C16.038 15.849 15.2833 15.6603 14.906 15.283C14.5286 15.0943 14.3399 14.7169 14.3399 14.1509C14.3399 13.5849 14.5286 13.2075 15.0946 12.8301C15.472 12.4528 16.2267 12.2641 16.9814 12.2641V16.0377H16.7927ZM17.5475 21.6981V17.9245C18.3022 18.1132 19.0569 18.3018 19.4343 18.6792C19.8116 18.8679 20.0003 19.2452 20.0003 19.8113C20.189 20.9433 19.2456 21.6981 17.5475 21.6981Z" fill="#FC7942"/>
<path d="M7.73585 26.4151C10.3774 28.6792 13.9623 29.8113 17.1698 29.4339C13.9623 29.0566 10.9434 27.5471 9.0566 25.0943C7.16981 22.8302 6.03774 19.8113 6.22641 16.9811C6.41509 14.1509 7.54717 11.3207 9.62264 9.43393C11.6981 7.54714 14.3396 6.41506 17.1698 6.41506C20 6.41506 22.6415 7.54714 24.717 9.43393C26.7925 11.3207 27.9245 13.9622 28.1132 16.9811C28.3019 19.8113 27.3585 22.8302 25.283 25.0943C23.3962 27.3585 20.3774 28.8679 17.1698 29.4339C20.3774 29.8113 23.9623 28.6792 26.6038 26.4151C29.2453 24.1509 30.9434 20.566 30.9434 16.9811C31.1321 13.3962 29.6226 9.62261 27.1698 6.9811C24.5283 4.33959 20.9434 2.64148 17.1698 2.64148C13.3962 2.64148 9.81132 4.15091 7.16981 6.79242C4.71698 9.62261 3.20755 13.3962 3.39623 16.9811C3.39623 20.566 5.09434 23.9622 7.73585 26.4151Z" fill="#FC7942"/>
<path d="M84.5285 29.2453C83.9625 29.0566 83.2078 28.8679 82.453 28.6793V24.5283C83.3964 24.5283 84.1511 24.717 85.0945 25.0943H85.2832C85.4719 25.0943 85.6606 25.0943 85.8493 24.9057C86.0379 24.717 86.0379 24.5283 86.0379 24.3396C86.0379 23.9623 85.8493 23.7736 85.4719 23.5849C84.5285 23.2076 83.3964 23.0189 82.2644 23.0189V21.6981C82.2644 21.5094 82.2644 21.5094 82.0757 21.3208C82.0757 21.3208 81.887 21.1321 81.6983 21.1321C81.5096 21.1321 81.5096 21.1321 81.5096 21.3208C81.5096 21.3208 81.321 21.5094 81.321 21.6981V23.0189C80.3776 23.0189 79.6228 23.2076 79.0568 23.5849C78.4908 23.9623 77.9247 24.3396 77.7361 24.9057C77.3587 25.4717 77.17 26.0377 77.17 26.6038C77.17 27.3585 77.3587 27.9245 77.7361 28.3019C78.1134 28.6793 78.6794 29.0566 79.2455 29.2453C79.8115 29.434 80.5662 29.8113 81.321 30V33.9623C80.1889 33.9623 79.0568 33.7736 78.1134 33.2076C77.9247 33.2076 77.9247 33.2076 77.7361 33.2076C77.5474 33.2076 77.3587 33.2076 77.17 33.3962C76.9813 33.5849 77.3587 33.9623 77.3587 34.1509C77.3587 34.3396 77.3587 34.5283 77.5474 34.5283C77.5474 34.717 77.7361 34.717 77.9247 34.717C79.0568 35.283 80.3776 35.4717 81.6983 35.4717V36.7925C81.6983 36.9811 81.887 37.1698 82.0757 37.1698C82.2644 37.1698 82.2644 37.1698 82.453 36.9811L82.6417 36.7925V35.4717C83.3964 35.4717 84.1511 35.283 84.9059 34.9057C86.0379 34.3396 86.7927 33.3962 86.7927 32.0755C86.7927 31.3208 86.604 30.7547 86.2266 30.1887C85.4719 29.8113 85.0945 29.434 84.5285 29.2453ZM81.5096 28.4906C80.7549 28.3019 80.0002 28.1132 79.6228 27.7359C79.2455 27.5472 79.0568 26.9811 79.0568 26.4151C79.0568 25.8491 79.2455 25.4717 79.8115 25.0943C80.1889 24.717 80.9436 24.5283 81.6983 24.5283V28.4906H81.5096ZM82.453 34.1509V30.3774C83.2078 30.566 83.9625 30.7547 84.3398 31.1321C84.7172 31.3208 84.9059 31.6981 84.9059 32.2642C84.9059 33.2076 84.1511 33.9623 82.453 34.1509Z" fill="#FC7942"/>
<path d="M72.6417 38.6793C75.2833 40.9434 78.8682 42.0755 82.0757 41.6981C78.8682 41.3208 75.8493 39.8113 73.9625 37.3585C72.0757 35.0944 70.9436 32.0755 71.1323 29.2453C71.321 26.4151 72.4531 23.5849 74.5285 21.6981C76.604 19.8113 79.2455 18.6793 82.0757 18.6793C84.9059 18.6793 87.5474 19.8113 89.6229 21.6981C91.6983 23.5849 92.8304 26.2264 93.0191 29.2453C93.2078 32.0755 92.2644 35.0944 90.1889 37.3585C88.3021 39.6227 85.2833 41.1321 82.0757 41.6981C85.2833 42.0755 88.8682 40.9434 91.5097 38.6793C94.1512 36.4151 95.8493 32.8302 95.8493 29.2453C96.038 25.6604 94.5285 21.8868 92.0757 19.2453C89.4342 16.6038 85.6606 15.0944 81.887 15.0944C78.1134 15.0944 74.5285 16.6038 71.887 19.2453C69.2455 21.8868 67.9248 25.6604 68.1134 29.2453C68.3021 32.8302 70.0002 36.4151 72.6417 38.6793Z" fill="#FC7942"/>
</svg>
