<svg width="80" height="80" viewBox="0 0 80 80" fill="none" xmlns="http://www.w3.org/2000/svg">
<path d="M75.4716 3.92459C74.7169 3.32081 73.6603 2.86798 72.7546 2.71704C72.1508 2.71704 71.9999 2.71704 71.5471 2.71704H70.4904C70.1886 2.71704 57.0565 2.71704 57.2074 2.71704H39.547H21.8867C21.2829 2.71704 7.84894 2.71704 8.60365 2.71704L7.54705 2.86798C7.09422 2.86798 6.64139 2.86798 6.03762 3.01893C4.07535 3.77364 2.71686 5.58497 2.56592 7.54723V9.81138C2.56592 10.1133 2.56592 23.2453 2.56592 23.0944C2.56592 28.9812 2.71686 34.868 2.71686 40.7548L2.8678 58.4152C2.8678 59.0189 3.01875 72.4529 3.01875 71.6982V72.7548C3.01875 73.2076 3.16969 73.6604 3.16969 74.1133C3.77346 75.7736 5.13196 76.9812 6.94328 77.2831C7.84894 77.434 8.45271 77.2831 9.20743 77.2831L13.5848 77.1321C24.7546 76.9812 28.0753 76.8303 39.9999 76.5284C34.1131 76.3774 28.2263 76.2265 22.3395 76.0755C21.7357 76.0755 8.30177 75.7737 9.05648 75.7737C8.30177 75.7737 7.54705 75.7736 6.94328 75.6227C5.73573 75.3208 4.83007 74.5661 4.37724 73.2076C4.37724 72.9057 4.2263 72.6038 4.2263 72.3019V71.2453C4.83007 22.7925 4.67913 27.0189 4.67913 22.7925V16.9057C10.264 17.5095 15.8489 17.8114 21.2829 17.9623C27.3206 18.2642 33.2074 18.2642 39.2452 18.2642C45.2829 18.2642 51.1697 18.1133 57.2074 17.9623C62.7923 17.8114 68.3772 17.5095 73.8112 16.9057V21.8869C73.8112 27.3208 73.8112 30.6416 74.264 70.3397V72.4529C74.264 73.0567 73.9621 73.6604 73.6602 74.1133C73.3584 74.5661 72.7546 75.0189 72.3018 75.3208C71.698 75.6227 71.2452 75.6227 70.3395 75.6227L65.9621 75.7737C54.7923 75.9246 51.1697 76.0755 39.547 76.3774C45.4338 76.5284 51.3206 76.6793 57.2074 76.8303C57.5093 76.8303 71.2452 77.1321 70.4904 77.1321C71.0942 77.1321 72.1508 77.1321 72.9055 76.8303C74.5659 76.2265 75.6225 74.717 75.9244 72.9057C75.9244 72.0001 75.9244 71.3963 75.9244 70.6416C75.9244 70.3397 76.0753 57.2076 76.0753 57.3586L76.2263 39.6982C76.2263 33.8114 76.3772 27.9246 76.3772 22.0378C76.3772 21.8869 76.3772 7.54723 76.3772 7.69817C76.3772 7.24534 76.3772 6.64157 76.2263 6.18874C76.8301 5.58497 76.2263 4.67931 75.4716 3.92459ZM57.9621 15.8491C51.9244 15.5472 46.0376 15.5472 39.9999 15.5472C33.9621 15.5472 28.0754 15.6982 22.0376 15.8491C16.4527 16.0001 10.8678 16.3019 5.43384 16.9057V14.1887V9.81138V7.69817C5.43384 6.79251 6.03762 5.88685 6.94328 5.58497C7.09422 5.58497 7.39611 5.43402 7.54705 5.43402C30.9433 5.73591 -16.6039 5.43402 39.547 5.73591C42.1131 5.73591 71.698 5.58497 71.5471 5.58497H72.6036C73.0565 5.58497 73.5093 5.73591 73.8112 6.0378C74.1131 6.33968 74.415 6.79251 74.5659 7.24534C74.5659 7.54723 74.7169 7.69817 74.7169 8.00006C74.7169 8.151 74.7169 13.8869 74.7169 13.585V17.0567C69.132 16.4529 63.547 16.151 57.9621 15.8491Z" fill="#FC7942"/>
<path d="M11.4715 9.96238C11.3206 10.2643 11.0187 10.5662 10.7168 11.1699C11.0187 11.7737 11.1696 12.0756 11.4715 12.3775C11.9243 12.8303 12.5281 12.8303 12.9809 12.3775C13.2828 12.2265 13.5847 11.7737 13.8866 11.1699C13.5847 10.5662 13.2828 10.2643 13.1319 9.96238C12.5281 9.66049 12.0753 9.66049 11.4715 9.96238Z" fill="#FC7942"/>
<path d="M20.5282 9.96238C20.2263 10.2643 19.9244 10.5662 19.6226 11.1699C19.9244 11.7737 20.0754 12.0756 20.3773 12.3775C20.8301 12.8303 21.4339 12.8303 21.8867 12.3775C22.1886 12.0756 22.3395 11.7737 22.6414 11.1699C22.3395 10.5662 22.1886 10.2643 21.8867 9.96238C21.5848 9.66049 20.981 9.66049 20.5282 9.96238Z" fill="#FC7942"/>
<path d="M29.4339 9.96238C29.132 10.2643 28.9811 10.5662 28.6792 11.1699C28.9811 11.7737 29.132 12.0756 29.4339 12.3775C29.8867 12.8303 30.4905 12.8303 30.9434 12.3775C31.2452 12.0756 31.3962 11.7737 31.6981 11.1699C31.3962 10.5662 31.2452 10.2643 30.9434 9.96238C30.4905 9.66049 29.8867 9.66049 29.4339 9.96238Z" fill="#FC7942"/>
<path d="M47.6979 10.1132C45.2828 10.2642 42.8677 10.566 40.4526 11.1698C42.8677 11.7736 45.2828 12.0755 47.6979 12.3774C52.83 12.8302 57.3583 12.8302 62.0375 12.3774C64.4526 12.2264 66.8677 11.7736 69.2828 11.1698C66.8677 10.566 64.4526 10.2642 62.0375 9.96227C57.3583 9.66038 52.6791 9.50944 47.6979 10.1132Z" fill="#FC7942"/>
<path d="M53.8868 64.0001C49.2076 63.6982 44.5284 63.6982 39.6982 63.6982C35.0189 63.6982 30.3397 63.8492 25.5095 64.0001C20.8302 64.1511 16.151 64.6039 11.3208 65.2077C16 65.8114 20.6793 66.1133 25.5095 66.4152C30.1887 66.7171 34.868 66.7171 39.6982 66.7171C44.3774 66.7171 49.0567 66.5662 53.8868 66.4152C58.5661 66.2643 63.2453 65.8114 68.0755 65.2077C63.2453 64.6039 58.5661 64.1511 53.8868 64.0001Z" fill="#FC7942"/>
<path d="M33.2075 52.9812C29.5849 52.9812 25.9622 53.1321 22.3396 53.2831C18.717 53.434 15.0943 53.8869 11.4717 54.4906C15.0943 55.0944 18.717 55.3963 22.3396 55.6982C25.9622 56.0001 29.5849 56.0001 33.2075 56.0001C36.8302 56.0001 40.4528 55.8491 44.0755 55.6982C47.6981 55.5472 51.3207 55.0944 54.9434 54.4906C51.3207 53.8869 47.6981 53.585 44.0755 53.2831C40.4528 52.9812 36.8302 52.9812 33.2075 52.9812Z" fill="#FC7942"/>
<path d="M14.943 42.868H17.0563H21.2827C31.8487 42.5661 42.5657 42.2642 53.1317 41.9623V42.1133L53.7355 45.1322C53.8864 45.434 53.7355 45.434 54.0374 46.1888C54.3393 46.7925 54.7921 47.2454 55.3959 47.3963C55.9996 47.5473 56.6034 47.5472 57.0562 47.2454C57.66 46.7925 57.66 46.6416 57.811 46.4906L58.1129 46.1888L58.2638 46.0378L58.8676 46.4906L61.1317 48.4529C61.2827 48.6039 63.094 49.9623 62.943 49.9623L63.2449 50.2642C63.3959 50.4152 63.5468 50.4152 63.8487 50.5661C64.3015 50.5661 64.6034 50.4152 64.9053 50.2642L65.3581 49.6605L66.2638 48.4529L64.9053 48.9057L64.3015 49.3586C64.1506 49.5095 63.8487 49.5095 63.8487 49.2076L63.6978 48.9057C63.5468 48.7548 62.1883 46.9435 62.1883 47.0944L60.2261 44.8303L59.7732 44.2265L59.6223 44.0756C59.3204 43.7737 59.0185 43.6227 58.5657 43.4718C57.9619 43.3208 57.5091 43.4718 56.9053 43.7737C56.7544 43.7737 56.6034 43.9246 56.6034 44.0756L56.4525 44.2265L56.3015 44.3774L55.8487 41.3586C55.6978 40.302 55.5468 39.3963 55.3959 38.3397L55.2449 36.9812L56.6034 37.1322L59.6223 37.585L62.4902 38.0378L62.3393 38.1888L62.1883 38.3397C62.1883 38.3397 62.0374 38.4906 61.8864 38.6416C61.2827 39.3963 61.4336 40.6039 62.1883 41.2076L62.3393 41.3586L62.943 41.8114L65.2072 43.7737C65.3581 43.9246 67.1695 45.2831 67.0185 45.2831L67.3204 45.434C67.4713 45.585 67.4713 45.7359 67.4713 45.8869L67.0185 46.7925L66.1129 48.0001L67.3204 47.0944L67.9242 46.6416C68.2261 46.3397 68.377 46.0378 68.377 45.585C68.377 45.434 68.2261 45.1322 68.0751 44.9812L67.9242 44.8303C67.7732 44.6793 66.4147 42.868 66.4147 43.0189L65.5091 41.9623H66.2638C67.0185 41.8114 67.7732 41.5095 68.2261 40.9057C68.8298 40.302 68.9808 39.3963 68.9808 38.6416L69.1317 36.5284C69.4336 32.0001 69.5846 29.1322 69.5846 27.6227C69.5846 27.3208 69.5846 27.1699 69.5846 26.868C69.4336 25.3586 68.2261 24.0001 66.7166 23.5473C66.4147 23.3963 66.2638 23.3963 65.9619 23.3963H65.5091C65.3581 23.3963 62.0374 23.3963 62.1883 23.3963C55.5468 23.3963 48.6034 23.2454 20.528 23.3963H16.3015H14.1883C13.2827 23.3963 12.0751 23.6982 11.3204 24.4529C10.5657 25.2076 9.96191 26.1133 9.96191 27.1699V28.3774V29.434V33.6605V37.8869V38.9435C9.96191 39.2454 9.96191 39.8491 10.1129 40.302C10.4147 41.2076 11.1695 42.1133 11.9242 42.5661C13.2827 42.868 14.4902 42.868 14.943 42.868ZM12.8298 37.7359V33.5095C12.8298 32.4529 12.8298 28.0756 12.8298 28.3774C12.8298 28.0756 12.8298 27.6227 12.8298 27.4718C12.8298 27.1699 13.1317 26.7171 13.2827 26.5661C13.5846 26.2642 13.8864 26.2642 14.3393 26.2642H16.4525H20.6789C47.094 26.4152 58.8676 26.2642 62.3393 26.2642C62.4902 26.2642 65.66 26.2642 65.5091 26.2642H65.9619H66.2638C66.5657 26.4152 66.8676 26.5661 67.1695 26.868C67.3204 27.0189 67.3204 27.1699 67.4713 27.3208V27.6227C67.4713 29.1322 67.6223 31.8491 67.9242 36.5284L68.0751 38.6416C68.2261 39.2454 68.0751 39.8491 67.7732 40.302C67.4713 40.7548 67.0185 41.2076 66.4147 41.3586C66.1129 41.5095 65.811 41.5095 65.5091 41.5095L64.4525 40.7548L63.9997 40.151L64.1506 40.0001L64.4525 39.6982C64.6034 39.5473 64.7544 39.5473 65.2072 38.9435C65.5091 38.4906 65.5091 37.7359 65.3581 37.2831C65.2072 36.6793 64.7544 36.2265 64.1506 35.9246C63.3959 35.6227 63.3959 35.7737 63.094 35.6227L60.0751 35.019L57.0562 34.4152C56.9053 34.4152 55.094 34.1133 55.2449 34.1133C55.094 34.1133 55.094 34.1133 54.6412 33.9623C54.0374 33.9623 53.2827 34.2642 52.8298 34.7171C52.377 35.1699 52.0751 35.9246 52.0751 36.5284C52.0751 36.9812 52.0751 36.9812 52.2261 37.1322C52.2261 37.2831 52.5279 39.0944 52.5279 38.9435C52.6789 39.8491 52.8298 40.7548 52.9808 41.6605C32.4525 40.7548 14.6412 40.6039 14.943 40.6039C14.1883 40.6039 13.8864 40.6039 13.4336 40.302C13.1317 40.151 12.8298 39.6982 12.6789 39.3963C12.6789 39.2454 12.6789 39.0944 12.6789 38.7925L12.8298 37.7359Z" fill="#FC7942"/>
</svg>
