<svg width="80" height="80" viewBox="0 0 80 80" fill="none" xmlns="http://www.w3.org/2000/svg">
<path d="M77.4339 53.8868C77.283 49.5094 77.132 44.9811 76.9811 40.6038V38.9434C76.9811 38.3396 76.8301 37.5849 76.5283 37.1321C75.9245 35.9245 74.7169 35.1698 73.5094 35.1698C71.2452 35.1698 69.132 35.3208 66.8679 35.4717L73.5094 35.9245C74.415 36.0755 75.3207 36.8302 75.6226 37.5849C75.7735 38.0377 75.9245 38.4906 75.7735 38.9434L75.4716 40.6038C75.3207 44.9811 75.1698 49.5094 75.0188 53.8868L74.8679 60.5283V61.7359C73.5094 61.434 72.3018 61.1321 70.9433 60.9811C69.132 60.8302 67.4716 60.6792 65.6603 60.6792C63.849 60.6792 62.1886 60.8302 60.3773 60.9811C59.0188 61.1321 57.8113 61.434 56.4528 61.7359C56.4528 58.4151 56.3018 55.2453 56.3018 51.9245C56.1509 47.5472 55.9999 43.0189 55.849 38.6415C55.849 37.7358 56.3018 36.8302 57.0565 36.3774C57.5094 36.0755 57.9622 35.9245 58.415 35.9245L60.0754 35.7736C62.3396 35.6226 64.4528 35.4717 66.7169 35.3208C66.566 35.3208 66.415 35.3208 66.2641 35.3208C66.415 31.5472 66.566 27.7736 66.7169 24L66.8679 18.2642L67.0188 15.3962C67.0188 14.9434 67.0188 14.4906 67.0188 13.8868C67.0188 13.283 66.8679 12.8302 66.7169 12.2264C65.9622 10.1132 63.849 8.60377 61.5849 8.60377L55.849 8.45283L44.3773 8.30189C36.8301 8.15094 29.132 8.15094 21.5849 8H10.1132H8.60372C7.99994 8 7.39617 8.15094 6.7924 8.30189C5.58485 8.90566 4.52825 9.66038 3.77353 10.566C2.86787 11.6226 2.41504 12.8302 2.41504 14.0377V15.5472V16.9057L2.56598 39.6981L2.71693 48C2.56598 48.1509 2.56598 48.4528 2.56598 48.6038V52.3774V54.3396C2.56598 55.0943 2.71693 56 3.16976 56.7547C3.77353 58.2641 4.98108 59.4717 6.49051 60.0755C7.24523 60.3774 7.99995 60.5283 8.90561 60.5283H10.7169L25.6603 60.2264C26.566 60.2264 27.3207 60.2264 28.2264 60.0755C28.0754 61.7359 27.7735 63.2453 27.1698 64.6038C26.415 66.2642 25.2075 67.7736 23.849 68.9811C21.7358 69.1321 19.6226 69.434 17.6603 69.8868C19.7735 70.3396 21.8867 70.6415 23.849 70.7925C24.1509 71.0943 24.4528 71.2453 24.7547 71.2453H24.9056C28.2264 71.3962 31.5471 71.3962 34.8679 71.3962H35.3207H35.7735C39.0943 71.3962 42.2641 71.3962 45.5849 71.2453H45.7358C46.0377 71.2453 46.3396 71.0943 46.4905 70.9434C48.6037 70.7925 50.7169 70.4906 52.8301 70.0377C50.7169 69.5849 48.6037 69.283 46.4905 69.1321C45.132 67.9245 43.7735 66.4151 43.0188 64.7547C42.2641 63.2453 41.9622 61.5849 41.9622 59.7736C46.1886 59.6226 50.2641 59.4717 54.4905 59.1698C54.4905 61.1321 54.4905 63.0943 54.3396 65.0566V66.717C54.3396 67.3208 54.4905 68.2264 54.7924 68.9811C55.3962 70.4906 56.9056 71.5472 58.415 71.6981H59.0188H59.4716H60.2264H61.8867H65.2075H71.849H73.5094C74.2641 71.6981 75.0188 71.3962 75.7735 71.0943C77.132 70.3396 78.0377 68.8302 78.1886 67.1698L78.0377 60.3774L77.4339 53.8868ZM42.1132 68.8302C39.849 68.8302 37.4339 68.6792 35.1698 68.6792C35.0188 68.6792 34.8679 68.6792 34.7169 68.6792C34.566 68.6792 34.415 68.6792 34.2641 68.6792C31.9999 68.6792 29.5849 68.6792 27.3207 68.8302C27.9245 67.7736 28.5282 66.717 28.9811 65.5094C29.5849 63.6981 29.7358 61.8868 29.5849 60.0755C33.0565 59.9245 36.6792 59.9245 40.1509 59.7736C39.849 61.5849 39.9999 63.5472 40.6037 65.5094C40.9056 66.717 41.3584 67.9245 42.1132 68.8302ZM54.0377 51.9245C53.8867 54.3396 53.8867 56.7547 53.8867 59.1698C49.3584 58.8679 44.8301 58.717 40.3018 58.4151C35.3207 58.2642 30.3396 58.1132 25.3584 57.9623L10.566 57.6604H8.75466C8.30183 57.6604 7.849 57.5094 7.54711 57.3585C6.7924 57.0566 6.03768 56.3019 5.73579 55.5472C5.58485 55.0943 5.43391 54.7925 5.43391 54.3396V52.5283V50.2642C13.4339 50.2642 21.5849 50.1132 29.5849 49.9623C33.8113 49.8113 38.1886 49.6604 42.415 49.5094C46.3396 49.3585 50.2641 49.2076 54.1886 48.9057C54.0377 49.8113 54.0377 50.8679 54.0377 51.9245ZM54.4905 38.4906C54.3396 41.9623 54.1886 45.283 54.1886 48.7547C50.2641 48.4528 46.3396 48.3019 42.415 48.1509C38.1886 48 33.8113 47.8491 29.5849 47.6981C21.4339 47.3962 13.4339 47.3962 5.28296 47.3962V39.8491L5.43391 17.0566V15.6981C5.43391 15.2453 5.43391 14.6415 5.43391 14.3396C5.43391 13.5849 5.58485 12.9811 6.03768 12.5283C6.49051 12.0755 6.94334 11.6226 7.69806 11.4717C7.99994 11.3208 8.30183 11.3208 8.60372 11.3208H9.96221H21.4339C28.9811 11.1698 36.6792 11.1698 44.2264 11.0189L55.6981 10.8679L61.4339 10.566C62.9433 10.566 64.6037 11.4717 65.2075 12.9811C65.5094 13.7358 65.6603 14.4906 65.6603 15.5472L65.8113 18.4151L65.9622 24.1509C66.1132 27.9245 66.2641 31.6981 66.415 35.4717C64.3018 35.3208 62.3396 35.1698 60.2264 35.1698L58.566 35.0189C57.9622 35.0189 57.3584 35.1698 56.7547 35.4717C55.3962 35.9245 54.4905 37.1321 54.4905 38.4906ZM74.8679 67.0189C74.8679 67.6226 74.415 68.2264 73.8113 68.5283C73.5094 68.6792 73.2075 68.8302 72.9056 68.8302H71.2452H64.6037H61.283H59.6226H58.8679H58.415C58.2641 68.8302 58.2641 68.8302 58.1132 68.8302C57.5094 68.8302 56.9056 68.3774 56.6037 67.7736C56.4528 67.4717 56.4528 67.3208 56.4528 66.8679V65.2076C56.4528 64.3019 56.4528 63.5472 56.4528 62.6415C57.8113 62.9434 59.0188 63.2453 60.3773 63.3962C62.1886 63.5472 63.849 63.6981 65.6603 63.6981C67.4716 63.6981 69.132 63.5472 70.9433 63.3962C72.3018 63.2453 73.5094 62.9434 74.8679 62.6415V67.0189Z" fill="#FC7942"/>
<path d="M63.6978 49.2075C63.245 49.9622 62.6412 50.7169 62.3394 51.7736C63.245 51.4717 64.1507 51.0188 64.9054 50.4151C65.6601 49.9622 66.4148 49.3585 67.0186 48.7547C67.6224 48.1509 68.2261 47.3962 68.679 46.6415C69.1318 45.8868 69.7356 45.132 70.0375 44.0754C69.1318 44.3773 68.2262 44.8302 67.4714 45.4339C66.7167 45.8868 65.962 46.4905 65.3582 47.0943C64.7544 47.849 64.1507 48.4528 63.6978 49.2075Z" fill="#FC7942"/>
<path d="M64.1511 45.4338C64.453 45.132 64.9058 44.6791 65.0568 44.2263C65.3587 43.7735 65.5096 43.1697 65.5096 42.5659C64.7549 42.5659 64.3021 42.8678 63.8492 43.0187C63.3964 43.3206 62.9436 43.6225 62.6417 43.9244C62.3398 44.2263 61.887 44.6791 61.736 45.132C61.4342 45.5848 61.2832 46.1886 61.2832 46.7923C62.0379 46.7923 62.4908 46.6414 62.9436 46.3395C63.3964 46.1886 63.6983 45.8867 64.1511 45.4338Z" fill="#FC7942"/>
<path d="M35.1698 30.7924C33.9622 32 32.7547 33.3585 31.6981 34.717C30.6415 36.0755 29.5849 37.434 28.6792 39.0943C30.1886 38.1887 31.6981 37.1321 33.0566 36.0755C34.415 35.0189 35.6226 33.8113 36.9811 32.6038C38.1886 31.3962 39.3962 30.0377 40.4528 28.6792C41.5094 27.3207 42.566 25.9623 43.4717 24.3019C41.9622 25.2075 40.4528 26.2641 39.0943 27.3207C37.7358 28.3774 36.3773 29.5849 35.1698 30.7924Z" fill="#FC7942"/>
<path d="M31.8488 26.5661C32.6035 25.8114 33.2073 25.0567 33.8111 24.3019C34.4148 23.5472 34.8677 22.6416 35.3205 21.585C34.2639 21.8868 33.3582 22.4906 32.6035 23.0944C31.6979 23.6982 30.9431 24.3019 30.3394 25.0567C29.5847 25.8114 28.9809 26.5661 28.3771 27.3208C27.7733 28.0755 27.3205 28.9812 26.8677 30.0378C27.9243 29.7359 28.8299 29.1321 29.5847 28.5284C30.3394 27.9246 31.0941 27.3208 31.8488 26.5661Z" fill="#FC7942"/>
</svg>
