<svg width="80" height="80" viewBox="0 0 80 80" fill="none" xmlns="http://www.w3.org/2000/svg">
<path d="M75.7736 12.9811C75.3207 12.3774 67.9245 5.13207 68.0754 5.28301C67.7736 4.98113 67.6226 4.83018 67.0188 4.37735C66.566 4.07547 65.9622 3.77358 65.5094 3.62264C64.4528 3.32075 63.0943 3.47169 62.1887 3.92452C61.7358 4.22641 61.1321 4.67924 60.8302 4.98113C55.2453 10.8679 48.6038 17.9623 43.3207 24.3019L30.6415 11.6226C30.4905 11.4717 24.9056 6.03773 25.0566 6.18867C24.6037 5.88679 24.4528 5.43396 23.849 4.98113C22.6415 4.07547 21.132 3.62264 19.7736 4.07547C19.0188 4.22641 18.4151 4.5283 17.8113 4.98113C17.2075 5.43396 17.8113 4.83018 5.73582 17.3585C5.58488 17.5094 5.28299 17.8113 5.13205 17.9623C4.9811 18.2641 4.67922 18.566 4.67922 18.8679C4.37733 19.4717 4.22639 20.0755 4.22639 20.8302C4.22639 22.1887 4.9811 23.5472 5.73582 24.3019C18.717 36.6792 6.49054 25.0566 24.9056 42.566C20.0754 46.4906 15.5471 50.717 11.0188 54.9434C10.8679 55.0943 10.8679 55.0943 10.717 55.2453V55.3962C9.35846 58.566 8.15092 61.8868 6.94337 65.0566C5.73582 68.2264 4.52827 71.5472 3.32073 74.717C3.16978 75.0189 3.16978 75.4717 3.32073 75.7736C3.62261 76.5283 4.52827 76.9811 5.28299 76.6792C8.4528 75.4717 11.7736 74.2641 14.9434 73.0566C18.1132 71.8491 21.4339 70.4906 24.6037 69.283H24.7547C24.9056 69.283 24.9056 69.1321 24.9056 69.1321C29.132 64.6038 33.3585 59.9245 37.283 55.0943C41.3585 59.4717 45.5849 63.8491 49.6604 68.2264L54.0377 72.7547L55.0943 73.8113C55.5471 74.1132 55.6981 74.566 56.3019 75.0189C57.3585 75.7736 58.717 76.0755 60.0754 75.9245C60.6792 75.7736 61.283 75.4717 61.8868 75.1698C62.4905 74.717 62.7924 74.4151 63.0943 73.9623C63.3962 73.6604 75.1698 62.3396 74.2641 63.0943C74.4151 62.9434 74.717 62.6415 74.8679 62.3396C76.0754 60.8302 76.2264 59.0189 75.4717 57.3585C75.3207 57.0566 75.1698 56.7547 74.8679 56.4528C74.717 56.1509 74.4151 55.8491 74.2641 55.6981L65.5094 46.7924L55.849 36.6792C60.3773 32.9057 64.7547 28.9811 69.132 24.9057C71.3962 22.9434 75.3207 19.0189 75.1698 19.1698C75.4717 18.8679 75.9245 18.4151 76.2264 17.8113C76.8302 16.7547 76.8302 15.5472 76.5283 14.4906C76.3773 13.8868 76.0755 13.434 75.7736 12.9811ZM14.0377 70.3396C11.7736 71.0943 9.50941 72 7.24526 72.7547C7.99997 70.4906 8.90563 68.2264 9.66035 65.9623C10.717 63.0943 11.6226 60.0755 12.6792 57.2075C13.132 58.1132 13.5849 58.8679 14.1887 59.6226C15.0943 60.8302 16 61.8868 17.0566 62.9434C18.1132 64 19.1698 64.9057 20.3773 65.8113C21.132 66.4151 22.0377 66.8679 22.7924 67.3207C19.9245 68.2264 17.0566 69.283 14.0377 70.3396ZM59.9245 44.8302C59.7736 44.8302 59.6226 44.9811 59.4717 44.9811C58.8679 45.283 58.4151 45.5849 57.9622 46.0377C57.5094 46.4906 57.2075 46.9434 56.9056 47.5472C56.6038 48.1509 56.4528 48.7547 56.4528 49.6604C58.4151 49.6604 60.3773 48.4528 61.283 46.4906C61.283 46.3396 61.4339 46.1887 61.4339 46.0377L63.849 48.4528L67.4717 51.9245C66.8679 52.2264 66.2641 52.5283 65.8113 52.8302C64.1509 53.8868 62.4905 55.5472 61.283 57.3585C60.6792 58.2641 60.2264 59.3207 59.7736 60.5283C60.9811 60.2264 61.8868 59.6226 62.9434 59.0189C64.7547 57.8113 66.4151 56.1509 67.4717 54.4906C67.7736 53.8868 68.0754 53.434 68.3773 52.8302L72.7547 57.2075C73.9622 58.2641 73.9622 59.7736 72.7547 60.8302C72.4528 61.1321 61.7358 72.1509 61.8868 72C61.1321 72.9057 60.6792 73.3585 59.9245 73.5094C59.1698 73.6604 58.4151 73.5094 57.8113 73.0566C57.5094 72.9057 57.0566 72.4528 56.7547 72.1509C56.6037 72 50.717 66.4151 51.1698 66.717C45.1321 60.9811 39.2453 55.2453 33.0566 49.6604C34.566 51.3208 36.2264 52.9811 37.7358 54.6415C33.0566 58.566 28.5283 62.6415 24 66.8679C23.5471 65.8113 22.9434 64.9057 22.3396 64C21.4339 62.7924 20.5283 61.7358 19.4717 60.6792C18.4151 59.6226 17.3585 58.717 16.1509 57.8113C15.2453 57.2075 14.3396 56.6038 13.283 56.1509C17.3585 51.7736 21.4339 47.2453 25.3585 42.566C27.9245 44.9811 30.4905 47.3962 33.2075 49.8113C24.6037 40.4528 7.69809 22.9434 7.54714 22.7924C6.3396 21.5849 6.3396 19.7736 7.69809 18.717C19.4717 7.24528 19.6226 7.09433 19.7736 6.94339L20.6792 6.49056C21.283 6.33962 22.0377 6.49056 22.4905 6.94339C22.6415 7.09433 23.0943 7.54716 23.3962 7.84905C23.5471 7.99999 27.3207 11.7736 27.1698 11.6226C26.566 11.9245 25.9622 12.2264 25.5094 12.5283C23.849 13.5849 22.1887 15.2453 20.9811 17.0566C20.3773 17.9623 19.9245 19.0189 19.4717 20.2264C20.6792 19.9245 21.5849 19.3207 22.6415 18.717C24.4528 17.5094 26.1132 15.8491 27.1698 14.1887C27.4717 13.7358 27.7736 13.1321 28.0754 12.5283L28.6792 13.434L32.9056 17.6604C32.7547 17.6604 32.6038 17.8113 32.6038 17.9623C32.4528 18.1132 32.3019 18.4151 32.1509 18.8679C32.1509 19.3207 32.1509 19.6226 32.3019 20.3774C32.9056 20.6792 33.3585 20.6792 33.8113 20.5283C34.1132 20.5283 34.4151 20.3774 34.717 20.0755C34.8679 19.9245 34.8679 19.9245 35.0188 19.7736L39.849 24.6038C39.6981 24.6038 39.5471 24.7547 39.3962 24.7547C38.7924 25.0566 38.3396 25.3585 37.8868 25.8113C37.4339 26.2641 37.132 26.717 36.8302 27.3207C36.5283 27.9245 36.3773 28.5283 36.3773 29.434C37.283 29.434 37.8868 29.283 38.4905 28.9811C39.0943 28.6792 39.5471 28.3774 40 27.9245C40.4528 27.4717 40.7547 27.0189 41.0566 26.4151C41.0566 26.2641 41.2075 26.1132 41.2075 25.9623L46.1887 30.9434L47.0943 31.8491C46.4905 32.1509 46.0377 32.4528 45.5849 32.7547C44.6792 33.3585 43.7736 34.1132 43.0188 34.8679C42.2641 35.6226 41.5094 36.5283 40.9056 37.434C40.3019 38.3396 39.849 39.3962 39.3962 40.6038C40.6037 40.3019 41.5094 39.6981 42.566 39.0943C43.4717 38.4906 44.3773 37.7358 45.132 36.9811C45.8868 36.2264 46.6415 35.3207 47.2453 34.4151C47.5471 33.9623 47.849 33.3585 48.1509 32.9057L53.1321 37.8868C52.9811 37.8868 52.9811 38.0377 52.8302 38.0377C52.6792 38.1887 52.5283 38.4906 52.3773 38.9434C52.3773 39.3962 52.3773 39.6981 52.5283 40.4528C53.132 40.7547 53.5849 40.7547 54.0377 40.6038C54.3396 40.6038 54.6415 40.4528 54.9434 40.1509C55.0943 40 55.0943 40 55.0943 39.8491L59.9245 44.8302ZM55.6981 36.5283L48.3019 28.9811L43.4717 24.3019C47.3962 20.9811 51.3207 17.5094 55.0943 14.0377C56.9056 17.6604 59.9245 20.8302 63.0943 23.0943C64 23.6981 64.9056 24.3019 65.9622 24.9057C62.4905 28.6792 59.0188 32.4528 55.6981 36.5283ZM73.6604 16.6038C73.5094 16.9057 73.5094 16.9057 73.2075 17.2075C66.8679 23.6981 69.7358 20.8302 66.566 24.3019C66.1132 23.2453 65.5094 22.3396 64.7547 21.434C62.4905 18.4151 59.3207 15.2453 55.6981 13.434C56 13.1321 58.1132 11.3207 62.7924 6.79245C63.0943 6.49056 63.0943 6.49056 63.3962 6.33962C63.849 6.18867 64.3019 6.18867 64.6038 6.18867C65.0566 6.33962 65.2075 6.49056 65.9622 7.24528C74.1132 15.3962 73.5094 14.7924 73.8113 15.2453C73.8113 15.6981 73.8113 16.1509 73.6604 16.6038Z" fill="#FC7942"/>
</svg>
