<svg width="80" height="80" viewBox="0 0 80 80" fill="none" xmlns="http://www.w3.org/2000/svg">
<path d="M78.4903 73.0568C78.4903 72.9058 78.4903 70.9435 78.4903 71.0945C78.4903 70.1888 78.4903 69.4341 78.4903 68.3775C78.3394 66.5662 76.9809 65.0568 75.1696 64.7549C74.8677 64.7549 74.5658 64.7549 74.2639 64.7549H73.6602H71.396C72.1507 55.0945 72.1507 46.0379 72.3017 44.3775V43.4718C72.3017 43.019 72.1507 42.4152 71.9998 41.9624C71.547 40.9058 70.4903 40.302 69.4337 40.1511H65.8111H62.1885C61.1319 40.1511 60.0752 40.9058 59.6224 41.9624C59.3205 42.4152 59.3205 43.17 59.3205 43.4718V44.3775C59.3205 45.8869 59.4715 55.3964 60.2262 65.0567C58.2639 65.0567 56.4526 65.2077 54.4903 65.2077C55.2451 53.8869 55.396 42.7171 55.5469 31.5473C55.5469 31.3964 55.5469 30.9435 55.396 30.4907C55.0941 29.2832 54.1885 28.3775 52.9809 28.2266C52.83 28.2266 52.5281 28.2266 52.3771 28.2266H52.0752C51.9243 28.2266 48.7545 28.2266 48.9054 28.2266C48.7545 28.2266 45.5847 28.2266 45.7356 28.2266H45.4337C43.9243 28.2266 42.7168 29.2832 42.4149 30.6417C42.2639 30.9435 42.2639 31.5473 42.2639 31.6983C42.4149 42.2643 42.4149 51.7737 43.3205 65.8115C42.2639 65.8115 41.3583 65.8115 40.3017 65.9624C41.3583 65.9624 42.2639 65.9624 43.3205 66.1133C43.3205 66.2643 43.4715 66.4152 43.6224 66.4152C44.3771 66.4152 45.1319 66.2643 45.8866 66.2643C50.8677 66.4152 55.9998 66.5662 60.9809 66.7171L71.2451 67.019H73.8111H74.4149H74.8677C75.7734 67.17 76.3771 67.9247 76.3771 68.8303V71.3964V73.8115C76.3771 74.5662 75.7734 75.17 75.0186 75.3209C74.8677 75.3209 74.7168 75.3209 74.5658 75.3209C29.4337 74.8681 4.82997 75.3209 6.18846 75.3209C6.03751 75.3209 5.88657 75.3209 5.73563 75.3209C4.98091 75.17 4.37714 74.5662 4.37714 73.8115V71.3964V68.8303C4.37714 68.0756 4.98091 67.3209 5.88657 67.019H6.3394H6.94317H9.50921L19.7734 66.7171C24.6036 66.5662 29.4337 66.4152 34.4149 66.2643C35.3205 66.4152 36.2262 66.4152 37.1319 66.5662C37.4337 66.5662 37.5847 66.4152 37.5847 66.1133C38.4903 66.1133 39.5469 66.1134 40.4526 65.9624C39.5469 65.9624 38.4903 65.9624 37.5847 65.8115C38.3394 56.302 38.4903 46.1888 38.4903 44.5284V43.6228C38.4903 43.17 38.3394 42.5662 38.1885 42.1134C37.7356 41.0567 36.679 40.453 35.6224 40.302H31.9998H28.3771C27.3205 40.302 26.2639 41.0567 25.8111 42.1134C25.5092 42.5662 25.5092 43.3209 25.5092 43.6228V44.5284C25.5092 46.0379 25.6602 55.8492 26.4149 65.3586C24.4526 65.3586 22.6413 65.2077 20.679 65.2077C21.1319 48.6039 21.1319 31.3964 21.1319 31.5473C21.1319 31.3964 21.1319 30.9435 20.9809 30.4907C20.679 29.2832 19.7734 28.3775 18.5658 28.2266C18.4149 28.2266 18.113 28.2266 17.962 28.2266H17.6602C17.5092 28.2266 14.3394 28.2266 14.4903 28.2266C14.3394 28.2266 11.1696 28.2266 11.3205 28.2266H11.0186C10.8677 28.2266 10.5658 28.2266 10.4149 28.2266C9.20733 28.5284 8.30167 29.4341 7.99978 30.4907C7.84884 30.7926 7.84883 31.3964 7.84883 31.5473C7.99978 44.6794 8.30167 56.1511 8.90544 64.7549H6.49035H5.88657C5.58468 64.7549 5.2828 64.7549 4.98091 64.7549C3.16959 65.0568 1.8111 66.7171 1.66016 68.3775V71.0945C1.66016 71.2454 1.66016 73.2077 1.66016 73.0568V73.8115C1.66016 75.019 2.41487 76.2266 3.32053 76.9813C3.77336 77.2832 4.37714 77.585 4.98091 77.736C5.2828 77.736 5.58468 77.8869 5.88657 77.8869H6.49035C27.6224 78.0379 77.4337 77.8869 74.2639 77.8869C74.5658 77.8869 74.8677 77.8869 75.1696 77.736C76.9809 77.2832 78.3394 75.7737 78.4903 73.8115C78.4903 73.3586 78.4903 73.2077 78.4903 73.0568ZM45.5847 65.5096C44.9809 65.5096 44.3771 65.3586 43.7734 65.3586C44.679 51.3209 44.679 40.453 44.83 31.5473C44.83 31.2454 44.83 31.3964 44.83 31.2454C44.83 31.0945 44.9809 31.0945 44.9809 31.0945H45.8866H48.4526H51.0186H51.9243C51.9243 31.0945 52.0752 31.0945 52.0752 31.2454V31.5473C52.2262 41.9624 52.2262 51.17 53.1319 65.2077C50.7168 65.3586 48.1507 65.3586 45.5847 65.5096ZM60.9809 65.0567C61.7356 56.0001 61.8866 45.736 61.8866 44.3775V43.4718C61.8866 43.3209 61.8866 43.3209 61.8866 43.3209L62.0375 43.17H65.5092H68.9809C69.1319 43.17 69.1319 43.17 69.1319 43.3209V43.4718V44.3775C69.1319 46.0379 69.2828 55.0945 70.0375 64.7549L60.9809 65.0567ZM27.7734 44.3775V43.4718C27.7734 43.3209 27.7734 43.3209 27.7734 43.3209L27.9243 43.17H31.396H34.8677C35.0186 43.17 35.0186 43.17 35.0186 43.3209V43.4718V44.3775C35.0186 45.8869 35.1696 55.6983 35.9243 65.3586C35.1696 65.3586 34.4149 65.5096 33.8111 65.5096C31.396 65.3586 29.1319 65.3586 26.7168 65.2077C27.6224 56.302 27.7734 45.5851 27.7734 44.3775ZM10.7168 31.5473C10.7168 31.2454 10.7168 31.3964 10.7168 31.2454C10.7168 31.0945 10.8677 31.0945 10.8677 31.0945H11.7734H14.3394H16.9054H17.8111C17.8111 31.0945 17.962 31.0945 17.962 31.2454V31.5473C18.113 44.9813 18.4149 56.6039 19.0186 65.0567L9.50921 64.7549C10.7168 48.453 10.7168 31.3964 10.7168 31.5473Z" fill="#FC7942"/>
<path d="M15.8487 13.5849C15.3959 13.4339 14.7921 13.283 14.1883 13.132V9.66034C14.943 9.66034 15.5468 9.81128 16.3015 10.1132H16.4525C16.6034 10.1132 16.7544 10.1132 16.9053 9.96223C17.0563 9.81128 17.0563 9.66034 17.0563 9.5094C17.0563 9.20751 16.9053 9.05657 16.6034 8.90562C15.8487 8.60374 14.943 8.45279 14.0374 8.45279V7.39619C14.0374 7.24525 14.0374 7.24525 13.8864 7.0943C13.8864 7.0943 13.7355 6.94336 13.5846 6.94336C13.7355 7.0943 13.5846 7.0943 13.5846 7.24525C13.5846 7.24525 13.4336 7.39619 13.4336 7.54713V8.60374C12.6789 8.60374 12.0751 8.75468 11.6223 9.05657C11.1695 9.20751 10.8676 9.5094 10.5657 9.96223C10.2638 10.4151 10.1129 10.8679 10.1129 11.3207C10.1129 11.9245 10.2638 12.3773 10.5657 12.6792C11.0185 13.132 11.3204 13.4339 11.7732 13.5849C12.2261 13.7358 12.8298 14.0377 13.4336 14.1886V17.3585C12.528 17.3585 11.6223 17.2075 10.8676 16.7547C10.7166 16.7547 10.7166 16.7547 10.5657 16.7547C10.4147 16.7547 10.2638 16.7547 10.1129 16.9056C9.96191 17.0566 9.96191 17.2075 9.96191 17.3585C9.96191 17.5094 9.96191 17.6603 10.1129 17.6603C10.1129 17.8113 10.2638 17.8113 10.4147 17.8113C11.3204 18.2641 12.377 18.4151 13.4336 18.4151V19.4717C13.4336 19.6226 13.4336 19.6226 13.5846 19.6226L13.7355 19.7735C13.8864 19.7735 13.8864 19.7735 14.0374 19.6226L14.1883 19.4717V18.4151C14.7921 18.4151 15.3959 18.2641 15.9997 17.9622C16.4525 17.6603 16.9053 17.3585 17.2072 17.0566C17.5091 16.6037 17.66 16.1509 17.66 15.6981C17.66 15.0943 17.5091 14.6415 17.2072 14.1886C16.6034 14.0377 16.3015 13.7358 15.8487 13.5849ZM13.4336 12.8302C12.8298 12.6792 12.2261 12.5283 11.9242 12.2264C11.6223 12.0754 11.4713 11.7735 11.4713 11.3207C11.4713 10.8679 11.6223 10.566 12.0751 10.2641C12.377 9.96223 12.9808 9.81128 13.5846 9.81128V12.8302H13.4336ZM14.0374 17.3585V14.3396C14.6412 14.4905 15.2449 14.6415 15.5468 14.9434C15.8487 15.0943 15.9997 15.3962 15.9997 15.849C16.1506 16.7547 15.3959 17.3585 14.0374 17.3585Z" fill="#FC7942"/>
<path d="M6.18848 21.1322C8.30169 22.9435 11.1696 23.8491 13.7357 23.5472C11.1696 23.2454 8.75452 22.0378 7.24509 20.0755C5.73565 18.2642 4.82999 15.8491 4.98094 13.585C5.13188 11.3208 6.03754 9.05668 7.69792 7.54724C9.35829 6.03781 11.4715 5.13215 13.7357 5.13215C15.9998 5.13215 18.113 6.03781 19.7734 7.54724C21.4338 9.05668 22.3394 11.1699 22.4904 13.585C22.6413 15.8491 21.8866 18.2642 20.2262 20.0755C18.7168 21.8869 16.3017 23.0944 13.7357 23.5472C16.3017 23.8491 19.1696 22.9435 21.2828 21.1322C23.396 19.3208 24.7545 16.4529 24.7545 13.585C24.9055 10.7171 23.6979 7.69819 21.7357 5.58498C19.6224 3.47177 16.7545 2.11328 13.7357 2.11328C10.7168 2.11328 7.84886 3.32083 5.73565 5.43404C3.77339 7.69819 2.56584 10.7171 2.71679 13.585C2.71679 16.4529 4.07528 19.1699 6.18848 21.1322Z" fill="#FC7942"/>
<path d="M67.6224 23.3963C67.1696 23.2454 66.5658 23.0944 65.962 22.9435V19.6227C66.7168 19.6227 67.3205 19.7737 68.0752 20.0756H68.2262C68.3771 20.0756 68.5281 20.0756 68.679 19.9246C68.83 19.7737 68.83 19.6227 68.83 19.4718C68.83 19.1699 68.679 19.019 68.3771 18.868C67.6224 18.5661 66.7168 18.4152 65.8111 18.4152V17.3586C65.8111 17.2076 65.8111 17.2076 65.6602 17.0567C65.6602 17.0567 65.5092 16.9058 65.3583 16.9058C65.2073 16.9058 65.2073 16.9058 65.2073 17.0567C65.2073 17.0567 65.0564 17.2076 65.0564 17.3586V18.4152C64.3017 18.4152 63.6979 18.5661 63.2451 18.868C62.7922 19.1699 62.3394 19.4718 62.1885 19.9246C61.8866 20.3775 61.7356 20.8303 61.7356 21.2831C61.7356 21.8869 61.8866 22.3397 62.1885 22.6416C62.4903 22.9435 62.9432 23.2454 63.396 23.3963C63.8488 23.5473 64.4526 23.8492 65.0564 24.0001V27.1699C64.1507 27.1699 63.2451 27.019 62.4903 26.5661C62.3394 26.5661 62.3394 26.5661 62.1885 26.5661C62.0375 26.5661 61.8866 26.5661 61.7356 26.7171C61.5847 26.868 61.8866 27.1699 61.8866 27.3209C61.8866 27.4718 61.8866 27.6227 62.0375 27.6227C62.0375 27.7737 62.1885 27.7737 62.3394 27.7737C63.2451 28.2265 64.3017 28.3775 65.3583 28.3775V29.4341C65.3583 29.585 65.5092 29.736 65.6602 29.736C65.8111 29.736 65.8111 29.736 65.962 29.585L66.113 29.4341V28.3775C66.7168 28.3775 67.3205 28.2265 67.9243 27.9246C68.83 27.4718 69.4337 26.7171 69.4337 25.6605C69.4337 25.0567 69.2828 24.6039 68.9809 24.151C68.3771 23.8492 68.0752 23.5473 67.6224 23.3963ZM65.2073 22.7926C64.6035 22.6416 63.9998 22.4907 63.6979 22.1888C63.396 22.0378 63.2451 21.585 63.2451 21.1322C63.2451 20.6793 63.396 20.3775 63.8488 20.0756C64.1507 19.7737 64.7545 19.6227 65.3583 19.6227V22.7926H65.2073ZM65.962 27.3209V24.302C66.5658 24.4529 67.1696 24.6039 67.4715 24.9058C67.7734 25.0567 67.9243 25.3586 67.9243 25.8114C67.9243 26.5661 67.3205 27.1699 65.962 27.3209Z" fill="#FC7942"/>
<path d="M58.1129 30.9434C60.2261 32.7547 63.094 33.6603 65.6601 33.3585C63.094 33.0566 60.6789 31.849 59.1695 29.8868C57.6601 28.0754 56.7544 25.6603 56.9054 23.3962C57.0563 21.132 57.962 18.8679 59.6223 17.3585C61.2827 15.849 63.3959 14.9434 65.6601 14.9434C67.9242 14.9434 70.0374 15.849 71.6978 17.3585C73.3582 18.8679 74.2638 20.9811 74.4148 23.3962C74.5657 25.6603 73.811 28.0754 72.1506 29.8868C70.6412 31.6981 68.2261 32.9056 65.6601 33.3585C68.2261 33.6603 71.094 32.7547 73.2072 30.9434C75.3205 29.132 76.6789 26.2641 76.6789 23.3962C76.8299 20.5283 75.6223 17.5094 73.6601 15.3962C71.5469 13.283 68.528 12.0754 65.5091 12.0754C62.4903 12.0754 59.6223 13.283 57.5091 15.3962C55.3959 17.5094 54.3393 20.5283 54.4903 23.3962C54.6412 26.2641 55.9997 29.132 58.1129 30.9434Z" fill="#FC7942"/>
</svg>
